<?xml version="1.0" encoding="UTF-8"?>
<svg id="Layer_1" xmlns="http://www.w3.org/2000/svg" xmlns:xlink="http://www.w3.org/1999/xlink" version="1.1" viewBox="0 0 2000 400">
  <!-- Generator: Adobe Illustrator 29.5.1, SVG Export Plug-In . SVG Version: 2.1.0 Build 141)  -->
  <defs>
    <style>
      .st0 {
        fill: url(#linear-gradient2);
      }

      .st1 {
        fill: url(#linear-gradient1);
      }

      .st2 {
        fill: url(#linear-gradient9);
      }

      .st3 {
        fill: url(#linear-gradient3);
      }

      .st4 {
        fill: url(#linear-gradient6);
      }

      .st5 {
        fill: url(#linear-gradient8);
      }

      .st6 {
        fill: url(#linear-gradient7);
      }

      .st7 {
        fill: url(#linear-gradient5);
      }

      .st8 {
        fill: url(#linear-gradient4);
      }

      .st9 {
        fill: url(#linear-gradient13);
      }

      .st10 {
        fill: url(#linear-gradient12);
      }

      .st11 {
        fill: url(#linear-gradient11);
      }

      .st12 {
        fill: url(#linear-gradient10);
      }

      .st13 {
        fill: url(#linear-gradient14);
      }

      .st14 {
        fill: url(#linear-gradient);
      }

      .st15 {
        fill: #0070ff;
      }
    </style>
    <linearGradient id="linear-gradient" x1="140.84" y1="126.88" x2="140.84" y2="62.71" gradientUnits="userSpaceOnUse">
      <stop offset="0" stop-color="#0070ff"/>
      <stop offset=".36" stop-color="#7fc5eb"/>
      <stop offset="1" stop-color="#fff"/>
    </linearGradient>
    <linearGradient id="linear-gradient1" x1="140.84" y1="125.83" x2="140.84" y2="63.77" gradientUnits="userSpaceOnUse">
      <stop offset="0" stop-color="#0070ff"/>
      <stop offset=".58" stop-color="#7fc5eb"/>
      <stop offset=".92" stop-color="#fff"/>
    </linearGradient>
    <linearGradient id="linear-gradient2" x1="328.98" y1="126.79" x2="328.98" y2="70.24" xlink:href="#linear-gradient1"/>
    <linearGradient id="linear-gradient3" x1="328.98" y1="125.74" x2="328.98" y2="71.29" xlink:href="#linear-gradient1"/>
    <linearGradient id="linear-gradient4" x1="436.2" y1="126.79" x2="436.2" y2="62.62" xlink:href="#linear-gradient1"/>
    <linearGradient id="linear-gradient5" x1="436.2" y1="125.74" x2="436.2" y2="63.68" xlink:href="#linear-gradient1"/>
    <linearGradient id="linear-gradient6" x1="504.67" y1="126.97" x2="504.67" y2="70.33" xlink:href="#linear-gradient1"/>
    <linearGradient id="linear-gradient7" x1="504.67" y1="125.92" x2="504.67" y2="71.38" xlink:href="#linear-gradient1"/>
    <linearGradient id="linear-gradient8" x1="551.45" y1="126.7" x2="551.45" y2="71.14" xlink:href="#linear-gradient1"/>
    <linearGradient id="linear-gradient9" x1="551.45" y1="125.65" x2="551.45" y2="72.2" xlink:href="#linear-gradient1"/>
    <linearGradient id="linear-gradient10" x1="604.68" y1="126.7" x2="604.68" y2="70.24" xlink:href="#linear-gradient1"/>
    <linearGradient id="linear-gradient11" x1="604.68" y1="125.65" x2="604.68" y2="71.29" xlink:href="#linear-gradient1"/>
    <linearGradient id="linear-gradient12" x1="378.35" y1="104.18" x2="378.35" y2="92.76" xlink:href="#linear-gradient1"/>
    <linearGradient id="linear-gradient13" x1="378.35" y1="103.13" x2="378.35" y2="93.81" xlink:href="#linear-gradient1"/>
    <linearGradient id="linear-gradient14" x1="240.83" y1="126.67" x2="240.83" y2="70.48" xlink:href="#linear-gradient1"/>
  </defs>
  <path class="st15" d="M2016.79,158.3c0-.88-.6-1.62-1.41-1.84-.5-.55-1.22-.9-2.02-.9H94.2c-1.51,0-2.74,1.23-2.74,2.74h0c0,1.51,1.23,2.74,2.74,2.74h1919.17c.8,0,1.52-.35,2.02-.9.81-.22,1.41-.96,1.41-1.84Z"/>
  <g>
    <g>
      <path d="M295.76,81.93c-2.63-2.54-5.77-4.49-9.34-5.8-3.54-1.31-7.42-1.97-11.51-1.97s-7.96.66-11.47,1.97c-1.04.39-2.09.85-3.12,1.39-5.67,2.25-10.89,5.67-15.53,10.17-5.84-6.83-14.18-13.52-30.69-13.52-4.1,0-7.96.66-11.47,1.97-3.53,1.31-6.66,3.27-9.29,5.8-2.63,2.54-4.73,5.71-6.23,9.43-1.49,3.7-2.25,8.03-2.25,12.86s.74,9.16,2.2,12.89c1.47,3.75,3.53,6.94,6.14,9.48,2.6,2.54,5.73,4.49,9.3,5.81,3.54,1.3,7.43,1.97,11.58,1.97,1.2.13,2.4.2,3.58.2,9.7,0,18.59-4.43,27.15-13.55,13.67,12.09,24.58,13.42,28.68,13.42h0c.78,0,1.29-.05,1.48-.07,4.13,0,8.01-.67,11.53-1.97,3.57-1.31,6.71-3.27,9.34-5.8,2.63-2.54,4.72-5.73,6.19-9.48,1.46-3.73,2.2-8.07,2.2-12.89s-.76-9.15-2.25-12.86c-1.5-3.72-3.6-6.89-6.23-9.43ZM279.4,116.91c-8.92.11-13.92-1.94-15.68-3.03-6.39-3.93-9.76-7.42-10.93-9.13,1.05-1.72,5.94-7.53,10.49-11.34,3.11-2.6,8.02-5.63,11.64-5.63,3.88,0,6.86,1.31,9.12,4.02,2.27,2.72,3.43,6.9,3.43,12.42s-3.58,15.02-3.43,12.51,4.3.07-4.62.18ZM214.08,87.78c8.89.38,13.84,6.19,18.95,15.45.16.3.31.63.47.98.11.24.22.49.34.73-6.93,10-11.24,14.05-16.35,15.4-1.04.26-2.18.39-3.38.39-3.88,0-6.86-1.31-9.12-4.02-2.27-2.72-3.43-6.93-3.43-12.51s1.17-9.69,3.47-12.42c2.28-2.7,5.24-4.02,9.05-4.02Z"/>
      <path d="M179.77,111.48c-.28-3.78-.59-7.73-.94-11.75-.35-4.12-.7-8.02-1.04-11.59-.35-3.66-.7-6.96-1.04-9.79-.35-2.85-.67-5.01-.95-6.41-.41-2.06-1.73-3.64-3.9-4.69-2.01-.96-4.68-1.45-7.93-1.45-1.87,0-3.61.18-5.17.55-1.56.36-2.88.81-3.92,1.33-.24.12-.42.32-.52.57-1.47,3.91-3.18,8.76-5.1,14.41-1.7,4.99-3.41,10.19-5.1,15.47-.47-1.39-.96-2.85-1.47-4.36-.8-2.39-1.61-4.8-2.44-7.23-.82-2.4-1.66-4.8-2.5-7.13-.83-2.32-1.64-4.45-2.41-6.33-1.06-2.57-2.65-4.46-4.72-5.61-2.02-1.12-4.78-1.69-8.2-1.69s-5.75.5-7.62,1.53c-1.85,1.02-3.07,1.95-3.72,2.85-.12.16-.19.35-.2.55-.21,3-.42,6.27-.62,9.72-.2,3.38-.43,6.94-.67,10.58-.24,3.57-.49,7.08-.73,10.54-.24,3.47-.45,6.74-.62,9.72-.17,2.96-.31,5.65-.42,8.01-.1,2.33-.16,4.18-.16,5.5,0,2.67.94,4.59,2.79,5.73,1.68,1.03,4,1.56,6.89,1.56,1.44,0,2.85-.13,4.19-.38,1.35-.26,2.41-.53,3.23-.82.4-.14.67-.51.69-.94.2-4.09.38-7.94.52-11.43.14-3.58.27-7.04.36-10.29.11-3.62.23-7.03.36-10.43.08-2.15.18-4.47.29-6.95.66,2.01,1.43,4.2,2.28,6.55,1.53,4.18,3.43,9.57,5.65,16.03.59,1.69,1.8,2.88,3.59,3.55,1.6.6,3.59.9,5.92.9,1.76,0,3.37-.23,4.78-.67,1.44-.46,2.65-1.08,3.58-1.86.15-.13.27-.29.33-.48,2.27-6.94,4.2-12.69,5.76-17.11.86-2.44,1.61-4.67,2.25-6.66.13,3.39.25,7.34.37,11.79.17,6.63.5,14.07.99,22.1.16,2.81,1.24,4.75,3.22,5.76,1.77.9,3.9,1.36,6.35,1.36,1.88,0,3.48-.17,4.73-.5,1.27-.34,2.48-.85,3.6-1.52.33-.2.53-.56.51-.95-.07-1.74-.21-4.19-.42-7.3-.21-3.12-.45-6.56-.73-10.34Z"/>
      <path d="M350.47,73.42c-1.38,0-2.7.1-3.92.28-1.19.18-2.1.34-2.72.46-.49.1-.85.53-.85,1.03v15.05c0,3.39.02,6.9.05,10.43.02,2.08.08,4.25.19,6.47-.21-.47-.41-.93-.62-1.39-.88-1.94-1.85-3.91-2.88-5.85l-10.61-20.4c-1.33-2.52-3.03-4.18-5.05-4.94-1.89-.71-3.99-1.06-6.21-1.06-1.92,0-3.77.31-5.48.92-1.8.65-3.15,1.58-3.99,2.79-.13.18-.19.39-.19.61v46.68c0,2.73.67,4.69,2,5.83,1.3,1.12,3.39,1.66,6.4,1.66,1.3,0,2.58-.08,3.81-.24,1.21-.16,2.11-.29,2.75-.42.49-.1.85-.53.85-1.03v-16.86c0-3.03-.03-6.26-.09-9.58-.04-1.95-.12-3.97-.24-6.05.3.69.6,1.36.9,2.02.88,1.94,1.85,3.92,2.88,5.85l10.51,20.3c1.33,2.59,3.05,4.29,5.11,5.04,1.92.7,4,1.06,6.16,1.06s3.94-.24,5.48-.73c1.58-.49,2.86-1.16,3.82-1.97.23-.2.37-.49.37-.8v-47.67c0-2.73-.67-4.69-2-5.83-1.3-1.12-3.39-1.66-6.4-1.66Z"/>
      <path d="M476.22,111.48c-.28-3.78-.59-7.73-.94-11.75-.35-4.12-.7-8.02-1.04-11.59-.35-3.68-.7-6.98-1.04-9.79-.35-2.85-.67-5.01-.95-6.41-.41-2.06-1.73-3.64-3.9-4.69-2.01-.96-4.68-1.45-7.93-1.45-1.87,0-3.61.18-5.17.55-1.56.36-2.88.81-3.92,1.33-.24.12-.42.32-.52.57-1.47,3.91-3.18,8.76-5.1,14.41-1.7,4.99-3.41,10.19-5.1,15.47-.47-1.39-.97-2.85-1.47-4.36-.8-2.39-1.61-4.8-2.44-7.23-.83-2.41-1.67-4.81-2.5-7.13-.83-2.31-1.64-4.44-2.41-6.33-1.06-2.57-2.65-4.46-4.72-5.61-2.02-1.12-4.78-1.69-8.2-1.69s-5.75.5-7.62,1.53c-1.85,1.02-3.07,1.95-3.72,2.85-.12.16-.19.35-.2.55-.21,3-.42,6.27-.62,9.72-.2,3.38-.43,6.94-.67,10.58-.24,3.57-.49,7.08-.73,10.54-.24,3.47-.45,6.74-.62,9.72-.17,2.96-.31,5.65-.42,8.01-.1,2.31-.16,4.16-.16,5.5,0,2.67.94,4.59,2.79,5.73,1.68,1.03,4,1.56,6.89,1.56,1.44,0,2.85-.13,4.19-.38,1.35-.26,2.41-.53,3.23-.82.4-.14.67-.51.69-.94.2-4.09.38-7.94.52-11.43.14-3.52.26-6.98.36-10.29.11-3.62.23-7.03.36-10.43.08-2.15.18-4.47.29-6.95.66,2.01,1.43,4.2,2.28,6.55,1.53,4.18,3.43,9.57,5.65,16.03.59,1.69,1.8,2.88,3.59,3.55,1.6.6,3.59.9,5.92.9,1.76,0,3.37-.23,4.78-.67,1.44-.46,2.65-1.08,3.58-1.86.15-.13.27-.29.33-.48,2.27-6.94,4.2-12.69,5.76-17.11.86-2.44,1.61-4.67,2.25-6.66.13,3.39.25,7.34.37,11.79.17,6.63.5,14.07.99,22.1.16,2.81,1.24,4.75,3.22,5.76,1.77.9,3.9,1.36,6.35,1.36,1.88,0,3.48-.17,4.73-.5,1.27-.34,2.48-.85,3.6-1.52.33-.2.53-.56.51-.95-.07-1.76-.21-4.22-.42-7.3-.21-3.12-.45-6.56-.73-10.34Z"/>
      <path d="M533.08,116.6c-1.26-4.32-2.59-8.78-3.95-13.24-1.33-4.37-2.69-8.77-4.04-13.06-1.32-4.21-2.58-7.97-3.73-11.18-.71-2.06-2.28-3.54-4.67-4.41-2.19-.79-4.74-1.2-7.56-1.2-1.95,0-3.94.25-5.92.76-2.03.52-3.5,1.06-4.5,1.66-.2.12-.35.29-.43.5-.55,1.36-1.23,3.17-2.01,5.4-.79,2.23-1.66,4.69-2.63,7.38-.96,2.67-1.97,5.53-3,8.49-1.02,2.94-2.01,5.85-2.95,8.67-.94,2.81-1.8,5.43-2.59,7.85-.79,2.44-1.41,4.5-1.82,6.1-.3,1.02-.57,1.93-.81,2.71-.27.88-.41,1.81-.41,2.76,0,2.11.84,3.76,2.5,4.9,1.55,1.07,3.72,1.59,6.63,1.59,1.28,0,2.39-.1,3.3-.3.86-.19,1.72-.41,2.53-.66.35-.11.62-.39.71-.74.42-1.61.92-3.49,1.49-5.61.5-1.86,1.05-3.76,1.62-5.66h16.2l1.94,6.54c.53,2.14,1.43,3.76,2.65,4.81,1.27,1.09,3.28,1.61,6.17,1.61,1.93,0,3.62-.27,5.04-.79,1.46-.54,2.6-1.29,3.38-2.21.23-.27.31-.63.21-.97-.98-3.48-2.11-7.41-3.36-11.7ZM514.02,106.14h-10.16c.96-3.13,1.99-6.23,3.06-9.24.89-2.48,1.68-4.8,2.37-6.92.58,1.99,1.24,4.2,1.97,6.6.93,3.05,1.85,6.26,2.76,9.56Z"/>
      <path d="M578.43,74.78c-.2-.28-.52-.45-.86-.45h-39.61c-1.86,0-3.36.58-4.47,1.73-1.1,1.14-1.66,2.89-1.66,5.22,0,1.26.19,2.44.56,3.51.35,1.03.73,1.89,1.14,2.56.19.32.53.51.9.51h13.18v36.38c0,2.85.71,4.89,2.1,6.06,1.36,1.14,3.54,1.7,6.66,1.7,1.36,0,2.68-.08,3.94-.24,1.27-.16,2.24-.33,2.96-.53.46-.13.78-.54.78-1.02v-42.36h10c1.87,0,3.38-.6,4.49-1.78,1.09-1.16,1.64-2.9,1.64-5.16,0-1.25-.17-2.42-.5-3.49-.33-1.07-.75-1.96-1.23-2.64Z"/>
      <path d="M632.04,75.1c-1.42-1.13-3.53-1.68-6.46-1.68-1.32,0-2.63.1-3.91.28-1.24.18-2.21.33-2.89.46-.5.09-.87.53-.87,1.04v20.88h-17.38v-14.9c0-3-.75-5.08-2.23-6.19-1.41-1.06-3.54-1.57-6.52-1.57-1.26,0-2.54.1-3.82.28-1.24.18-2.21.33-2.89.46-.5.09-.87.53-.87,1.04v49.03c0,2.89.67,4.87,2.04,6.05,1.33,1.15,3.5,1.71,6.63,1.71,1.36,0,2.68-.08,3.94-.24,1.27-.16,2.24-.33,2.96-.53.46-.12.78-.54.78-1.02v-20.79h17.38v14.81c0,2.89.67,4.87,2.04,6.05,1.33,1.15,3.5,1.71,6.63,1.71,1.36,0,2.68-.08,3.94-.24,1.27-.16,2.24-.33,2.96-.53.46-.13.78-.54.78-1.02v-48.85c0-2.98-.74-5.09-2.21-6.26Z"/>
      <path d="M397.91,96.56c-.17-.38-.55-.62-.96-.62h-25.81c-1.38,0-2.53.66-3.31,1.9-.71,1.12-1.05,2.77-1.05,5.05,0,1.22.12,2.37.35,3.4.23,1.01.47,1.86.73,2.51.16.4.55.67.98.67h25.81c1.39,0,2.54-.68,3.32-1.95.7-1.15,1.04-2.78,1.04-4.99,0-1.21-.11-2.35-.32-3.38-.22-1.06-.47-1.9-.78-2.58Z"/>
    </g>
    <g>
      <path d="M292.04,77.76c-2.63-2.54-5.77-4.49-9.34-5.8-3.54-1.31-7.42-1.97-11.51-1.97s-7.96.66-11.47,1.97c-1.04.39-2.09.85-3.12,1.39-5.67,2.25-10.89,5.67-15.53,10.17-5.84-6.83-14.18-13.52-30.69-13.52-4.1,0-7.96.66-11.47,1.97-3.53,1.31-6.66,3.27-9.29,5.8-2.63,2.54-4.73,5.71-6.23,9.43-1.49,3.7-2.25,8.03-2.25,12.86s.74,9.16,2.2,12.89c1.47,3.75,3.53,6.94,6.14,9.48,2.6,2.54,5.73,4.49,9.3,5.81,3.54,1.3,7.43,1.97,11.58,1.97,1.2.13,2.4.2,3.58.2,9.7,0,18.59-4.43,27.15-13.55,13.67,12.09,24.58,13.42,28.68,13.42h0c.78,0,1.29-.05,1.48-.07,4.13,0,8.01-.67,11.53-1.97,3.57-1.31,6.71-3.27,9.34-5.8,2.63-2.54,4.72-5.73,6.19-9.48,1.46-3.73,2.2-8.07,2.2-12.89s-.76-9.15-2.25-12.86c-1.5-3.72-3.6-6.89-6.23-9.43ZM271.23,116.57c-2.71-.12-4.75-.78-6.58-1.74-2.38-1.25-3-1.17-6.77-4.4-2.22-1.9-12.02-10.59-11.59-11,1.3-1.23,4.77,2.93,3.39.9,1.05-1.72,5.33-7.3,9.87-11.1,3.11-2.6,8.02-5.63,11.64-5.63,3.88,0,6.86,1.31,9.12,4.02,2.27,2.72,3.43,6.9,3.43,12.42s-1.15,9.79-3.43,12.51c-2.26,2.7-5.24,4.02-9.07,4.02ZM210.36,83.6c8.89.38,13.17,4.15,18.28,13.41.16.3.93,1.56,1.09,1.91.11.24.97,2.35,1.09,2.59-6.93,10-11.94,13.31-17.05,14.66-1.04.26-2.18.39-3.38.39-3.88,0-6.86-1.31-9.12-4.02-2.27-2.72-3.43-6.93-3.43-12.51s1.17-9.69,3.47-12.42c2.28-2.7,5.24-4.02,9.05-4.02Z"/>
      <path d="M176.05,107.31c-.28-3.78-.59-7.73-.94-11.75-.35-4.12-.7-8.02-1.04-11.59-.35-3.66-.7-6.96-1.04-9.79-.35-2.85-.67-5.01-.95-6.41-.41-2.06-1.73-3.64-3.9-4.69-2.01-.96-4.68-1.45-7.93-1.45-1.87,0-3.61.18-5.17.55-1.56.36-2.88.81-3.92,1.33-.24.12-.42.32-.52.57-1.47,3.91-3.18,8.76-5.1,14.41-1.7,4.99-3.41,10.19-5.1,15.47-.47-1.39-.96-2.85-1.47-4.36-.8-2.39-1.61-4.8-2.44-7.23-.82-2.4-1.66-4.8-2.5-7.13-.83-2.32-1.64-4.45-2.41-6.33-1.06-2.57-2.65-4.46-4.72-5.61-2.02-1.12-4.78-1.69-8.2-1.69s-5.75.5-7.62,1.53c-1.85,1.02-3.07,1.95-3.72,2.85-.12.16-.19.35-.2.55-.21,3-.42,6.27-.62,9.72-.2,3.38-.43,6.94-.67,10.58-.24,3.57-.49,7.08-.73,10.54-.24,3.47-.45,6.74-.62,9.72-.17,2.96-.31,5.65-.42,8.01-.1,2.33-.16,4.18-.16,5.5,0,2.67.94,4.59,2.79,5.73,1.68,1.03,4,1.56,6.89,1.56,1.44,0,2.85-.13,4.19-.38,1.35-.26,2.41-.53,3.23-.82.4-.14.67-.51.69-.94.2-4.09.38-7.94.52-11.43.14-3.58.27-7.04.36-10.29.11-3.62.23-7.03.36-10.43.08-2.15.18-4.47.29-6.95.66,2.01,1.43,4.2,2.28,6.55,1.53,4.18,3.43,9.57,5.65,16.03.59,1.69,1.8,2.88,3.59,3.55,1.6.6,3.59.9,5.92.9,1.76,0,3.37-.23,4.78-.67,1.44-.46,2.65-1.08,3.58-1.86.15-.13.27-.29.33-.48,2.27-6.94,4.2-12.69,5.76-17.11.86-2.44,1.61-4.67,2.25-6.66.13,3.39.25,7.34.37,11.79.17,6.63.5,14.07.99,22.1.16,2.81,1.24,4.75,3.22,5.76,1.77.9,3.9,1.36,6.35,1.36,1.88,0,3.48-.17,4.73-.5,1.27-.34,2.48-.85,3.6-1.52.33-.2.53-.56.51-.95-.07-1.74-.21-4.19-.42-7.3-.21-3.12-.45-6.56-.73-10.34Z"/>
      <path d="M346.75,69.24c-1.38,0-2.7.1-3.92.28-1.19.18-2.1.34-2.72.46-.49.1-.85.53-.85,1.03v15.05c0,3.39.02,6.9.05,10.43.02,2.08.08,4.25.19,6.47-.21-.47-.41-.93-.62-1.39-.88-1.94-1.85-3.91-2.88-5.85l-10.61-20.4c-1.33-2.52-3.03-4.18-5.05-4.94-1.89-.71-3.99-1.06-6.21-1.06-1.92,0-3.77.31-5.48.92-1.8.65-3.15,1.58-3.99,2.79-.13.18-.19.39-.19.61v46.68c0,2.73.67,4.69,2,5.83,1.3,1.12,3.39,1.66,6.4,1.66,1.3,0,2.58-.08,3.81-.24,1.21-.16,2.11-.29,2.75-.42.49-.1.85-.53.85-1.03v-16.86c0-3.03-.03-6.26-.09-9.58-.04-1.95-.12-3.97-.24-6.05.3.69.6,1.36.9,2.02.88,1.94,1.85,3.92,2.88,5.85l10.51,20.3c1.33,2.59,3.05,4.29,5.11,5.04,1.92.7,4,1.06,6.16,1.06s3.94-.24,5.48-.73c1.58-.49,2.86-1.16,3.82-1.97.23-.2.37-.49.37-.8v-47.67c0-2.73-.67-4.69-2-5.83-1.3-1.12-3.39-1.66-6.4-1.66Z"/>
      <path d="M472.5,107.31c-.28-3.78-.59-7.73-.94-11.75-.35-4.12-.7-8.02-1.04-11.59-.35-3.68-.7-6.98-1.04-9.79-.35-2.85-.67-5.01-.95-6.41-.41-2.06-1.73-3.64-3.9-4.69-2.01-.96-4.68-1.45-7.93-1.45-1.87,0-3.61.18-5.17.55-1.56.36-2.88.81-3.92,1.33-.24.12-.42.32-.52.57-1.47,3.91-3.18,8.76-5.1,14.41-1.7,4.99-3.41,10.19-5.1,15.47-.47-1.39-.97-2.85-1.47-4.36-.8-2.39-1.61-4.8-2.44-7.23-.83-2.41-1.67-4.81-2.5-7.13-.83-2.31-1.64-4.44-2.41-6.33-1.06-2.57-2.65-4.46-4.72-5.61-2.02-1.12-4.78-1.69-8.2-1.69s-5.75.5-7.62,1.53c-1.85,1.02-3.07,1.95-3.72,2.85-.12.16-.19.35-.2.55-.21,3-.42,6.27-.62,9.72-.2,3.38-.43,6.94-.67,10.58-.24,3.57-.49,7.08-.73,10.54-.24,3.47-.45,6.74-.62,9.72-.17,2.96-.31,5.65-.42,8.01-.1,2.31-.16,4.16-.16,5.5,0,2.67.94,4.59,2.79,5.73,1.68,1.03,4,1.56,6.89,1.56,1.44,0,2.85-.13,4.19-.38,1.35-.26,2.41-.53,3.23-.82.4-.14.67-.51.69-.94.2-4.09.38-7.94.52-11.43.14-3.52.26-6.98.36-10.29.11-3.62.23-7.03.36-10.43.08-2.15.18-4.47.29-6.95.66,2.01,1.43,4.2,2.28,6.55,1.53,4.18,3.43,9.57,5.65,16.03.59,1.69,1.8,2.88,3.59,3.55,1.6.6,3.59.9,5.92.9,1.76,0,3.37-.23,4.78-.67,1.44-.46,2.65-1.08,3.58-1.86.15-.13.27-.29.33-.48,2.27-6.94,4.2-12.69,5.76-17.11.86-2.44,1.61-4.67,2.25-6.66.13,3.39.25,7.34.37,11.79.17,6.63.5,14.07.99,22.1.16,2.81,1.24,4.75,3.22,5.76,1.77.9,3.9,1.36,6.35,1.36,1.88,0,3.48-.17,4.73-.5,1.27-.34,2.48-.85,3.6-1.52.33-.2.53-.56.51-.95-.07-1.76-.21-4.22-.42-7.3-.21-3.12-.45-6.56-.73-10.34Z"/>
      <path d="M529.36,112.42c-1.26-4.32-2.59-8.78-3.95-13.24-1.33-4.37-2.69-8.77-4.04-13.06-1.32-4.21-2.58-7.97-3.73-11.18-.71-2.06-2.28-3.54-4.67-4.41-2.19-.79-4.74-1.2-7.56-1.2-1.95,0-3.94.25-5.92.76-2.03.52-3.5,1.06-4.5,1.66-.2.12-.35.29-.43.5-.55,1.36-1.23,3.17-2.01,5.4-.79,2.23-1.66,4.69-2.63,7.38-.96,2.67-1.97,5.53-3,8.49-1.02,2.94-2.01,5.85-2.95,8.67-.94,2.81-1.8,5.43-2.59,7.85-.79,2.44-1.41,4.5-1.82,6.1-.3,1.02-.57,1.93-.81,2.71-.27.88-.41,1.81-.41,2.76,0,2.11.84,3.76,2.5,4.9,1.55,1.07,3.72,1.59,6.63,1.59,1.28,0,2.39-.1,3.3-.3.86-.19,1.72-.41,2.53-.66.35-.11.62-.39.71-.74.42-1.61.92-3.49,1.49-5.61.5-1.86,1.05-3.76,1.62-5.66h16.2l1.94,6.54c.53,2.14,1.43,3.76,2.65,4.81,1.27,1.09,3.28,1.61,6.17,1.61,1.93,0,3.62-.27,5.04-.79,1.46-.54,2.6-1.29,3.38-2.21.23-.27.31-.63.21-.97-.98-3.48-2.11-7.41-3.36-11.7ZM510.29,101.96h-10.16c.96-3.13,1.99-6.23,3.06-9.24.89-2.48,1.68-4.8,2.37-6.92.58,1.99,1.24,4.2,1.97,6.6.93,3.05,1.85,6.26,2.76,9.56Z"/>
      <path d="M574.71,70.6c-.2-.28-.52-.45-.86-.45h-39.61c-1.86,0-3.36.58-4.47,1.73-1.1,1.14-1.66,2.89-1.66,5.22,0,1.26.19,2.44.56,3.51.35,1.03.73,1.89,1.14,2.56.19.32.53.51.9.51h13.18v36.38c0,2.85.71,4.89,2.1,6.06,1.36,1.14,3.54,1.7,6.66,1.7,1.36,0,2.68-.08,3.94-.24,1.27-.16,2.24-.33,2.96-.53.46-.13.78-.54.78-1.02v-42.36h10c1.87,0,3.38-.6,4.49-1.78,1.09-1.16,1.64-2.9,1.64-5.16,0-1.25-.17-2.42-.5-3.49-.33-1.07-.75-1.96-1.23-2.64Z"/>
      <path d="M628.31,70.92c-1.42-1.13-3.53-1.68-6.46-1.68-1.32,0-2.63.1-3.91.28-1.24.18-2.21.33-2.89.46-.5.09-.87.53-.87,1.04v20.88h-17.38v-14.9c0-3-.75-5.08-2.23-6.19-1.41-1.06-3.54-1.57-6.52-1.57-1.26,0-2.54.1-3.82.28-1.24.18-2.21.33-2.89.46-.5.09-.87.53-.87,1.04v49.03c0,2.89.67,4.87,2.04,6.05,1.33,1.15,3.5,1.71,6.63,1.71,1.36,0,2.68-.08,3.94-.24,1.27-.16,2.24-.33,2.96-.53.46-.12.78-.54.78-1.02v-20.79h17.38v14.81c0,2.89.67,4.87,2.04,6.05,1.33,1.15,3.5,1.71,6.63,1.71,1.36,0,2.68-.08,3.94-.24,1.27-.16,2.24-.33,2.96-.53.46-.13.78-.54.78-1.02v-48.85c0-2.98-.74-5.09-2.21-6.26Z"/>
      <path d="M394.19,92.38c-.17-.38-.55-.62-.96-.62h-25.81c-1.38,0-2.53.66-3.31,1.9-.71,1.12-1.05,2.77-1.05,5.05,0,1.22.12,2.37.35,3.4.23,1.01.47,1.86.73,2.51.16.4.55.67.98.67h25.81c1.39,0,2.54-.68,3.32-1.95.7-1.15,1.04-2.78,1.04-4.99,0-1.21-.11-2.35-.32-3.38-.22-1.06-.47-1.9-.78-2.58Z"/>
    </g>
    <path class="st14" d="M168.63,126.88c-2.27,0-4.25-.42-5.87-1.25-1.62-.83-2.51-2.47-2.65-4.88-.48-8.01-.82-15.44-.99-22.07-.17-6.68-.37-12.22-.57-16.46h-.52c-.83,2.89-2.03,6.6-3.58,11.01-1.53,4.34-3.43,10-5.66,16.83-.07.21-.2.39-.37.52-.79.59-1.78,1.08-2.95,1.45-1.31.41-2.81.62-4.46.62-2.21,0-4.08-.28-5.56-.83-1.48-.55-2.48-1.53-2.96-2.91-2.22-6.45-4.13-11.85-5.66-16.04-1.56-4.26-2.8-7.98-3.69-11.06h-.42c-.21,4.38-.39,8.34-.52,11.79-.13,3.42-.26,6.93-.36,10.44-.1,3.28-.22,6.73-.36,10.28-.13,3.28-.29,6.88-.48,10.7-.02.45-.33.83-.76.96-.65.19-1.44.37-2.34.54-1.28.24-2.62.36-4,.36-2.69,0-4.82-.47-6.33-1.4-1.52-.93-2.29-2.55-2.29-4.83,0-1.31.05-3.14.16-5.45.11-2.36.25-5.05.42-8,.17-3.01.38-6.28.62-9.71.24-3.46.48-6.97.73-10.54.24-3.6.47-7.17.68-10.59.2-3.33.4-6.49.6-9.38.02-.23.11-.46.27-.63.61-.68,1.66-1.44,3.13-2.25,1.69-.93,4.08-1.4,7.11-1.4,3.24,0,5.82.52,7.68,1.56,1.86,1.03,3.29,2.75,4.26,5.09.76,1.88,1.57,3.99,2.39,6.28.84,2.34,1.67,4.73,2.49,7.11.83,2.42,1.64,4.83,2.44,7.22.77,2.31,1.52,4.53,2.23,6.59h.52c1.93-6.07,3.89-12.03,5.82-17.7,1.84-5.43,3.5-10.13,4.94-13.98.1-.26.3-.48.56-.59.9-.4,2-.76,3.28-1.05,1.48-.34,3.14-.52,4.93-.52,3.1,0,5.61.45,7.48,1.35,1.86.9,2.98,2.22,3.32,3.95.27,1.38.59,3.51.93,6.33.34,2.8.69,6.08,1.04,9.76.35,3.71.7,7.6,1.04,11.58.34,3.98.66,7.93.93,11.73.28,3.77.52,7.22.73,10.33.18,2.71.31,4.93.39,6.62.02.41-.2.79-.56.98-.87.46-1.79.82-2.74,1.07-1.17.31-2.68.47-4.46.47Z"/>
    <path class="st1" d="M168.63,125.83c-2.11,0-3.92-.38-5.39-1.13-1.28-.65-1.96-1.96-2.07-4-.48-8-.82-15.42-.99-22.03-.17-6.69-.37-12.23-.57-16.48-.03-.56-.49-1-1.05-1h-.52c-.47,0-.88.31-1.01.76-.82,2.88-2.02,6.56-3.56,10.95-1.53,4.35-3.44,10.02-5.67,16.85-.69.52-1.58.95-2.63,1.29-1.21.38-2.6.57-4.15.57-2.08,0-3.83-.26-5.19-.76-1.19-.44-1.95-1.18-2.33-2.27-2.22-6.46-4.13-11.86-5.66-16.06-1.55-4.23-2.78-7.93-3.66-10.99-.13-.45-.54-.76-1.01-.76h-.42c-.56,0-1.03.44-1.05,1-.21,4.33-.38,8.3-.52,11.8-.13,3.42-.26,6.93-.36,10.44-.1,3.3-.22,6.75-.36,10.27-.13,3.28-.29,6.88-.48,10.69-.61.18-1.36.35-2.24.52-1.21.23-2.49.35-3.8.35-2.49,0-4.44-.42-5.78-1.25-1.2-.73-1.78-2.02-1.78-3.93,0-1.3.05-3.11.16-5.4.1-2.35.24-5.03.41-7.98.17-3.01.38-6.28.62-9.7.24-3.46.48-6.98.73-10.54.24-3.59.47-7.16.68-10.6.2-3.36.4-6.51.6-9.37.4-.45,1.21-1.12,2.85-2.02,1.53-.84,3.75-1.27,6.6-1.27,3.06,0,5.47.48,7.17,1.42,1.64.91,2.92,2.45,3.79,4.57.75,1.86,1.55,3.96,2.37,6.24.84,2.34,1.68,4.73,2.49,7.1.83,2.42,1.64,4.82,2.44,7.21.78,2.33,1.53,4.56,2.24,6.6.15.43.55.71,1,.71h.52c.46,0,.87-.3,1-.73,1.93-6.06,3.88-12.01,5.81-17.68,1.84-5.43,3.5-10.12,4.93-13.95.84-.37,1.87-.71,3.09-.99,1.4-.33,2.98-.49,4.69-.49,2.94,0,5.3.42,7.02,1.25,1.57.75,2.46,1.8,2.75,3.2.27,1.35.58,3.46.92,6.25.34,2.79.69,6.07,1.04,9.73.34,3.64.69,7.53,1.04,11.57.34,4.01.66,7.95.93,11.72.27,3.77.52,7.21.73,10.32.18,2.7.31,4.92.39,6.6-.79.42-1.64.75-2.51.98-1.08.29-2.5.43-4.2.43Z"/>
    <g>
      <path class="st0" d="M344.66,126.79c-2.04,0-3.99-.34-5.8-1-1.81-.66-3.33-2.19-4.53-4.53l-10.51-20.3c-1.02-1.92-1.99-3.88-2.86-5.8-.88-1.93-1.75-3.98-2.58-6.07l-.63.18c.3,3.62.48,7.11.54,10.38.06,3.31.09,6.53.09,9.56v15.97c0,.52-.38.96-.89,1.04-.49.08-1.09.16-1.78.25-1.18.15-2.42.23-3.67.23-2.71,0-4.63-.47-5.71-1.41-1.1-.95-1.63-2.59-1.63-5.03v-46.32c0-.25.09-.49.25-.68.73-.87,1.82-1.57,3.24-2.08,1.6-.57,3.32-.86,5.12-.86,2.1,0,4.07.34,5.85,1,1.77.66,3.28,2.16,4.49,4.44l10.6,20.39c1.02,1.92,1.98,3.87,2.86,5.8.87,1.93,1.74,3.98,2.58,6.07l.36-.09c-.3-4.03-.47-7.9-.5-11.51-.03-3.55-.05-7.06-.05-10.42v-14.17c0-.51.37-.95.87-1.04.5-.09,1.1-.18,1.8-.29,1.17-.18,2.44-.27,3.76-.27,2.71,0,4.63.47,5.71,1.41,1.1.95,1.63,2.59,1.63,5.03v47.16c0,.34-.16.66-.44.86-.79.57-1.8,1.05-3.01,1.42-1.44.45-3.18.68-5.17.68Z"/>
      <path class="st3" d="M344.66,125.74c-1.92,0-3.75-.31-5.44-.93-1.55-.57-2.88-1.92-3.96-4.02l-10.52-20.31c-1.02-1.92-1.97-3.85-2.83-5.75-.87-1.91-1.73-3.94-2.56-6.03-.16-.41-.56-.66-.98-.66-.1,0-.19.01-.29.04l-.63.18c-.48.14-.8.6-.76,1.1.3,3.59.48,7.06.54,10.31.06,3.31.09,6.52.09,9.54v15.97c-.48.08-1.07.16-1.75.25-1.14.14-2.33.22-3.54.22-3.05,0-4.41-.63-5.02-1.15-.84-.72-1.26-2.15-1.26-4.23v-46.32c.61-.73,1.55-1.32,2.79-1.77,1.48-.53,3.08-.8,4.77-.8,1.98,0,3.82.31,5.48.93,1.52.57,2.84,1.9,3.92,3.95l10.6,20.39c1.02,1.92,1.97,3.85,2.83,5.75.87,1.92,1.73,3.95,2.56,6.03.16.41.56.66.98.66.08,0,.17-.01.26-.03l.36-.09c.5-.12.83-.59.8-1.1-.3-4-.47-7.85-.5-11.44-.03-3.53-.05-7.03-.05-10.41v-14.17c.49-.09,1.09-.18,1.78-.29,1.12-.17,2.33-.26,3.6-.26,3.05,0,4.41.63,5.02,1.15.84.72,1.27,2.15,1.27,4.23v47.16c-.7.5-1.61.93-2.7,1.27-1.34.42-2.97.63-4.85.63Z"/>
      <path class="st8" d="M463.99,126.79c-2.27,0-4.25-.42-5.87-1.25-1.62-.83-2.51-2.47-2.65-4.88-.48-8.01-.82-15.44-.99-22.07-.17-6.68-.37-12.22-.57-16.46h-.52c-.83,2.89-2.03,6.6-3.58,11.01-1.53,4.34-3.43,10-5.66,16.83-.07.21-.2.39-.37.52-.79.59-1.78,1.08-2.95,1.45-1.31.41-2.81.62-4.46.62-2.21,0-4.08-.28-5.56-.83-1.48-.55-2.48-1.53-2.96-2.91-2.22-6.45-4.13-11.85-5.66-16.04-1.56-4.26-2.8-7.98-3.69-11.06h-.42c-.21,4.32-.38,8.29-.52,11.79-.13,3.42-.26,6.93-.36,10.44-.1,3.28-.22,6.73-.36,10.28-.13,3.28-.29,6.88-.48,10.7-.02.45-.33.83-.76.96-.65.19-1.44.37-2.34.54-1.28.24-2.62.36-4,.36-2.69,0-4.82-.47-6.33-1.4-1.52-.93-2.29-2.55-2.29-4.83,0-1.31.05-3.14.16-5.45.1-2.33.24-5.02.41-8,.17-3.01.38-6.28.62-9.71.24-3.46.48-6.97.73-10.54.24-3.6.47-7.17.68-10.59.2-3.33.4-6.49.6-9.38.02-.23.11-.46.27-.63.61-.68,1.66-1.44,3.13-2.25,1.69-.93,4.08-1.4,7.11-1.4,3.24,0,5.82.52,7.68,1.56,1.86,1.03,3.29,2.75,4.26,5.09.77,1.88,1.57,4,2.39,6.28.84,2.35,1.68,4.74,2.49,7.11.83,2.42,1.64,4.83,2.44,7.22.77,2.31,1.52,4.53,2.23,6.59h.52c1.93-6.07,3.89-12.03,5.82-17.7,1.84-5.43,3.5-10.13,4.94-13.98.1-.26.3-.48.56-.59.9-.4,2-.76,3.28-1.05,1.48-.34,3.14-.52,4.93-.52,3.1,0,5.61.45,7.48,1.35,1.86.9,2.98,2.22,3.32,3.95.28,1.38.59,3.51.93,6.33.34,2.8.69,6.08,1.04,9.76.34,3.64.69,7.54,1.04,11.58.34,3.98.66,7.93.93,11.73.28,3.77.52,7.22.73,10.33.18,2.72.31,4.95.39,6.62.02.41-.2.79-.56.98-.86.46-1.78.82-2.73,1.07-1.17.31-2.68.47-4.47.47Z"/>
      <path class="st7" d="M463.99,125.74c-2.11,0-3.92-.38-5.39-1.13-1.28-.65-1.96-1.96-2.07-4-.48-8-.82-15.42-.99-22.03-.17-6.69-.37-12.23-.57-16.48-.03-.56-.49-1-1.05-1h-.52c-.47,0-.88.31-1.01.76-.82,2.88-2.02,6.56-3.56,10.95-1.53,4.35-3.44,10.02-5.67,16.85-.69.52-1.58.95-2.63,1.29-1.21.38-2.6.57-4.15.57-2.08,0-3.83-.26-5.19-.76-1.19-.44-1.95-1.18-2.33-2.27-2.22-6.46-4.13-11.86-5.66-16.06-1.55-4.23-2.78-7.93-3.66-10.99-.13-.45-.54-.76-1.01-.76h-.42c-.56,0-1.03.44-1.05,1-.21,4.28-.38,8.25-.52,11.8-.13,3.42-.26,6.93-.36,10.44-.1,3.3-.22,6.75-.36,10.27-.13,3.28-.29,6.88-.48,10.69-.61.18-1.36.35-2.24.52-1.21.23-2.49.35-3.8.35-2.49,0-4.44-.42-5.78-1.25-1.2-.73-1.78-2.02-1.78-3.93,0-1.3.05-3.11.16-5.4.1-2.33.24-5.02.41-7.98.17-3.01.38-6.28.62-9.69.24-3.46.48-6.98.73-10.54.24-3.59.47-7.16.68-10.6.2-3.36.4-6.51.6-9.37.4-.45,1.21-1.12,2.85-2.02,1.53-.84,3.75-1.27,6.6-1.27,3.06,0,5.47.48,7.17,1.42,1.64.91,2.92,2.45,3.79,4.57.75,1.86,1.55,3.95,2.37,6.24.84,2.34,1.68,4.73,2.49,7.1.83,2.42,1.64,4.82,2.44,7.21.78,2.33,1.53,4.56,2.24,6.6.15.43.55.71,1,.71h.52c.46,0,.87-.3,1-.73,1.93-6.06,3.88-12.01,5.81-17.68,1.84-5.43,3.5-10.12,4.93-13.95.84-.37,1.87-.71,3.09-.99,1.4-.33,2.98-.49,4.69-.49,2.94,0,5.3.42,7.02,1.25,1.57.75,2.46,1.8,2.75,3.2.27,1.35.58,3.46.92,6.25.34,2.79.69,6.07,1.04,9.73.34,3.64.69,7.53,1.04,11.57.34,4.01.66,7.95.93,11.72.27,3.77.52,7.21.73,10.32.18,2.71.31,4.92.39,6.6-.79.42-1.64.75-2.51.98-1.08.29-2.5.43-4.2.43Z"/>
      <path class="st4" d="M523.27,126.97c-2.59,0-4.43-.46-5.48-1.36-1.05-.9-1.83-2.34-2.31-4.26l-2.18-7.34h-17.76c-.66,2.16-1.29,4.32-1.86,6.44-.51,1.87-.96,3.56-1.35,5.04-.09.36-.37.65-.73.75-.6.17-1.23.33-1.86.46-.84.18-1.88.27-3.08.27-2.65,0-4.67-.47-6.03-1.41-1.37-.94-2.04-2.26-2.04-4.03,0-.84.12-1.67.36-2.45.24-.79.51-1.69.82-2.72.41-1.6,1.03-3.66,1.81-6.07.78-2.42,1.65-5.03,2.58-7.84.93-2.81,1.93-5.72,2.95-8.66,1.02-2.94,2.03-5.79,2.99-8.47.97-2.69,1.84-5.15,2.63-7.39.71-2.03,1.34-3.71,1.85-5,.09-.23.27-.43.49-.54.89-.47,2.19-.92,3.86-1.35,1.9-.48,3.8-.73,5.66-.73,2.7,0,5.13.38,7.21,1.13,2.08.75,3.43,2.02,4.03,3.76,1.15,3.2,2.4,6.96,3.72,11.15,1.35,4.3,2.71,8.69,4.03,13.05,1.36,4.48,2.69,8.93,3.94,13.23,1.19,4.07,2.26,7.8,3.19,11.11.11.39-.01.8-.31,1.07-.63.56-1.46,1.04-2.47,1.42-1.3.48-2.87.73-4.67.73ZM504.51,83.02c-.85,2.72-1.9,5.84-3.13,9.29-1.23,3.46-2.41,7.04-3.49,10.65h12.96c-1.02-3.78-2.07-7.46-3.13-10.92-1.05-3.44-1.95-6.47-2.67-9.02h-.54Z"/>
      <path class="st6" d="M523.27,125.92c-2.3,0-3.95-.38-4.8-1.11-.88-.76-1.55-2.01-1.97-3.72l-2.19-7.39c-.13-.45-.54-.75-1.01-.75h-17.76c-.46,0-.87.3-1.01.75-.66,2.17-1.29,4.35-1.87,6.47-.51,1.87-.96,3.57-1.35,5.05-.59.17-1.19.32-1.8.45-.77.16-1.73.25-2.86.25-2.43,0-4.25-.41-5.43-1.22-1.08-.74-1.58-1.75-1.58-3.16,0-.74.11-1.46.32-2.14.24-.79.52-1.7.82-2.73.42-1.62,1.02-3.65,1.8-6.05.78-2.41,1.64-5.02,2.58-7.83.94-2.81,1.93-5.72,2.94-8.64,1.02-2.95,2.03-5.8,2.99-8.46.97-2.69,1.84-5.16,2.63-7.39.71-2.01,1.32-3.67,1.84-4.96.82-.43,2.04-.85,3.64-1.26,1.81-.46,3.63-.69,5.4-.69,2.58,0,4.89.36,6.85,1.07,1.79.65,2.9,1.67,3.4,3.11,1.15,3.2,2.39,6.94,3.71,11.12,1.35,4.29,2.7,8.68,4.03,13.04,1.35,4.46,2.68,8.91,3.94,13.22,1.18,4.04,2.25,7.77,3.19,11.1-.53.48-1.25.88-2.13,1.21-1.18.44-2.62.66-4.3.66ZM504.51,81.96c-.46,0-.87.3-1.01.74-.84,2.7-1.89,5.81-3.11,9.25-1.24,3.47-2.42,7.08-3.51,10.7-.1.32-.03.66.16.93.2.27.51.42.85.42h12.96c.33,0,.64-.15.84-.41s.27-.6.18-.92c-1.02-3.79-2.08-7.48-3.14-10.95-1.04-3.42-1.94-6.45-2.67-9-.13-.45-.54-.76-1.01-.76h-.54Z"/>
      <path class="st5" d="M551.81,126.7c-2.83,0-4.84-.49-5.98-1.45-1.16-.97-1.72-2.69-1.72-5.26v-37.43h-13.6c-.4,0-.77-.23-.94-.58-.25-.5-.49-1.09-.72-1.77-.33-.96-.5-2.03-.5-3.17,0-2.04.46-3.55,1.36-4.49.9-.93,2.15-1.41,3.72-1.41h39.02c.38,0,.74.21.92.55.28.51.53,1.12.75,1.81.3.97.45,2.03.45,3.17,0,1.99-.46,3.48-1.36,4.44-.9.96-2.15,1.45-3.72,1.45h-11.06v42.58c0,.5-.36.94-.85,1.03-.54.11-1.2.21-1.96.3-1.21.15-2.49.23-3.81.23Z"/>
      <path class="st2" d="M551.81,125.65c-2.53,0-4.37-.42-5.3-1.2-.89-.75-1.35-2.25-1.35-4.45v-37.43c0-.58-.47-1.05-1.05-1.05h-13.6c-.23-.46-.45-1.01-.67-1.64-.29-.85-.44-1.8-.44-2.83,0-1.76.36-3.02,1.06-3.75.71-.73,1.67-1.08,2.96-1.08h39.02c.25.45.47.99.67,1.62.27.86.4,1.82.4,2.86,0,1.71-.36,2.96-1.07,3.72-.7.75-1.67,1.12-2.95,1.12h-11.06c-.58,0-1.05.47-1.05,1.05v42.58c-.52.1-1.15.2-1.89.29-1.17.15-2.4.22-3.68.22Z"/>
      <path class="st12" d="M622.03,126.7c-2.83,0-4.82-.49-5.94-1.45-1.13-.97-1.68-2.69-1.68-5.26v-15.86h-19.49v21c0,.5-.36.94-.85,1.03-.55.11-1.2.21-1.96.3-1.21.15-2.49.23-3.81.23-2.83,0-4.82-.49-5.94-1.45-1.13-.97-1.68-2.69-1.68-5.26v-48.14c0-.52.37-.96.88-1.04.55-.09,1.21-.19,1.97-.3,1.23-.18,2.47-.27,3.67-.27,2.74,0,4.67.44,5.89,1.36,1.22.92,1.81,2.66,1.81,5.35v15.95h19.49v-21.04c0-.52.37-.96.88-1.04.55-.09,1.21-.19,1.97-.3,1.23-.18,2.5-.27,3.76-.27,2.68,0,4.58.47,5.8,1.45,1.22.98,1.81,2.76,1.81,5.44v48.01c0,.5-.36.94-.85,1.03-.54.11-1.2.21-1.96.3-1.21.15-2.49.23-3.81.23Z"/>
      <path class="st11" d="M622.03,125.65c-3.2,0-4.62-.65-5.25-1.19-.87-.75-1.31-2.25-1.31-4.46v-15.86c0-.58-.47-1.05-1.05-1.05h-19.49c-.58,0-1.05.47-1.05,1.05v21c-.52.1-1.15.2-1.89.29-1.17.15-2.41.22-3.68.22-3.2,0-4.62-.65-5.25-1.19-.87-.75-1.31-2.25-1.31-4.46v-48.14c.54-.09,1.2-.19,1.95-.3,1.18-.17,2.36-.26,3.52-.26,2.47,0,4.24.39,5.26,1.15.92.69,1.39,2.21,1.39,4.5v15.95c0,.58.47,1.05,1.05,1.05h19.49c.58,0,1.05-.47,1.05-1.05v-21.04c.54-.09,1.2-.19,1.95-.3,1.18-.17,2.39-.26,3.61-.26,2.4,0,4.13.41,5.14,1.22.94.75,1.42,2.31,1.42,4.61v48.01c-.52.1-1.15.2-1.89.29-1.17.15-2.41.22-3.68.22Z"/>
      <path class="st10" d="M365.04,104.18c-.46,0-.87-.3-1.01-.74-.15-.47-.29-1.01-.42-1.61-.22-.96-.32-2.03-.32-3.17,0-2.04.3-3.55.89-4.49.59-.93,1.4-1.41,2.42-1.41h25.09c.45,0,.85.29,1,.72.16.46.3,1.02.43,1.64.2.97.3,2.03.3,3.17,0,2.01-.29,3.47-.89,4.44-.59.96-1.4,1.45-2.42,1.45h-25.06Z"/>
      <path class="st9" d="M365.04,103.13c-.14-.44-.27-.95-.4-1.53-.2-.89-.3-1.88-.3-2.94,0-2.3.39-3.4.72-3.92.4-.63.87-.91,1.53-.91h25.09c.14.43.28.94.4,1.51.18.89.27,1.89.27,2.96,0,1.79-.25,3.1-.73,3.89-.4.65-.87.95-1.52.95h-25.06Z"/>
    </g>
    <path class="st13" d="M296.31,86.36c-1.39-3.44-3.32-6.37-5.74-8.7-2.42-2.33-5.32-4.13-8.61-5.34-3.31-1.22-6.94-1.84-10.78-1.84s-7.46.62-10.74,1.84c-.97.36-1.96.8-2.93,1.31-.03.02-.06.03-.1.05-5.4,2.14-10.98,6.55-15.42,10.83,1.62,2.35,3.4,8.53,6.3,12.75.17-.21,2.26-3.27,2.44-3.5,1.41-1.74,4.26-5.07,7.46-7.75,1.22-1.02,7.59-6.12,12.99-6.12,4.48,0,8.09,1.61,10.73,4.77,2.6,3.11,3.92,7.75,3.92,13.77s-1.32,10.75-3.92,13.86c-2.64,3.17-6.25,4.77-10.78,4.77h0c-3.07-.13-6.81-1.62-8.92-2.94-4.63-2.89-8.18-5.24-13.46-13.75-1.91-3.08-5.57-11.05-7.93-14.9-4.44-7.26-14.15-14.99-30.45-14.99-3.85,0-7.46.62-10.74,1.84-3.26,1.21-6.14,3.01-8.56,5.34-2.42,2.33-4.35,5.26-5.74,8.7-1.39,3.45-2.1,7.51-2.1,12.07s.69,8.64,2.06,12.12c1.36,3.47,3.26,6.41,5.65,8.74,2.39,2.33,5.27,4.13,8.56,5.34,3.31,1.22,6.97,1.84,10.86,1.84h.02s.11,0,.15,0c1.14.13,2.28.2,3.4.2,8.43,0,18.23-6.39,25.83-13.85-2.8-3.44-5.8-7.9-7.31-11.08-5.88,8.36-12.03,13.23-18.19,14.87-1.21.3-2.52.46-3.9.46-4.48,0-8.09-1.61-10.73-4.77-2.6-3.11-3.92-7.78-3.92-13.86s1.33-10.67,3.97-13.78c2.67-3.16,6.27-4.77,10.68-4.77.01,0,.03,0,.04,0,10.96.45,16.45,8.78,20.73,16.54.21.38.38.76.55,1.14.01.03.05.11.12.22.76,1.39,2.93,6.99,10.32,15.93,11.28,12.89,23.7,12.82,27.64,12.82h0c.81,0,1.26-.06,1.26-.06.05,0,.1-.01.15-.01,3.9,0,7.56-.62,10.87-1.84,3.29-1.21,6.19-3.01,8.61-5.34,2.42-2.33,4.33-5.27,5.69-8.73,1.36-3.49,2.06-7.57,2.06-12.12s-.71-8.61-2.1-12.07Z"/>
    <g>
      <path class="st15" d="M135.92,230.66c-.84,0-1.51-.2-1.98-.61-.46-.39-.82-.99-1.12-1.84l-2.43-7.18h-14.44c-.23.66-.47,1.36-.73,2.11-.3.89-.59,1.76-.88,2.6-.28.85-.56,1.65-.83,2.39-.26.74-.47,1.35-.62,1.82-.05.15-.15.27-.3.33-.59.25-1.29.38-2.08.38-.71,0-1.35-.19-1.91-.57-.62-.42-.94-1.09-.94-1.99,0-.39.07-.8.19-1.21.12-.37.25-.76.4-1.18.57-1.58,1.29-3.62,2.18-6.12.88-2.47,1.85-5.15,2.89-7.97,1.04-2.82,2.1-5.65,3.17-8.51,1.08-2.85,2.08-5.44,2.98-7.69.05-.12.14-.22.25-.28.34-.17.82-.33,1.47-.49.64-.16,1.32-.24,2-.24.8,0,1.59.12,2.34.37.86.28,1.42.77,1.67,1.46.89,2.15,1.87,4.68,2.92,7.5,1.04,2.81,2.1,5.72,3.15,8.65,1.06,2.97,2.09,5.9,3.04,8.71.95,2.8,1.81,5.4,2.58,7.74.06.18.02.37-.11.52-.35.39-.76.71-1.24.94-.49.24-1.05.37-1.65.37ZM128.84,216.17c-.48-1.44-1-2.93-1.52-4.43-.61-1.72-1.18-3.37-1.73-4.96-.55-1.59-1.06-3.05-1.53-4.39-.3-.84-.56-1.62-.8-2.32-.31.85-.65,1.78-1.01,2.78-.53,1.45-1.08,2.97-1.64,4.56-.57,1.59-1.13,3.19-1.7,4.81-.48,1.37-.93,2.68-1.35,3.95h11.29Z"/>
      <path class="st15" d="M130.76,220.5h-15.19c-.26.76-.55,1.58-.85,2.47-.3.89-.59,1.76-.88,2.61-.28.85-.56,1.64-.82,2.38-.26.74-.47,1.35-.62,1.84-.53.23-1.15.34-1.87.34-.6,0-1.14-.16-1.62-.48-.47-.32-.71-.84-.71-1.56,0-.34.06-.69.17-1.05.11-.36.24-.75.4-1.16.57-1.59,1.29-3.63,2.18-6.12.89-2.49,1.85-5.15,2.89-7.96,1.04-2.81,2.1-5.65,3.17-8.5,1.08-2.85,2.07-5.41,2.98-7.68.3-.15.76-.3,1.36-.45.6-.15,1.23-.23,1.87-.23.76,0,1.48.11,2.18.34.7.23,1.14.6,1.33,1.13.91,2.19,1.88,4.7,2.92,7.51,1.04,2.82,2.09,5.7,3.15,8.64,1.06,2.95,2.07,5.85,3.03,8.7.96,2.85,1.82,5.43,2.58,7.74-.3.34-.66.61-1.08.82-.42.21-.89.31-1.42.31-.72,0-1.27-.16-1.64-.48-.38-.32-.7-.86-.96-1.62l-2.55-7.54ZM123.17,198.79c-.42,1.13-.89,2.43-1.42,3.88-.53,1.45-1.08,2.97-1.64,4.56-.57,1.59-1.13,3.19-1.7,4.82s-1.1,3.17-1.59,4.65h12.75c-.57-1.7-1.15-3.41-1.76-5.13-.6-1.72-1.18-3.37-1.73-4.96-.55-1.59-1.06-3.05-1.53-4.39-.47-1.34-.86-2.48-1.16-3.43h-.23Z"/>
      <path class="st15" d="M166.53,230.94c-1.89,0-3.63-.23-5.16-.67-1.53-.44-2.8-.97-3.78-1.56-.88-.54-1.47-1.07-1.82-1.61-.36-.55-.54-1.29-.54-2.18v-31.96c0-.22.13-.41.33-.49.21-.08.52-.17.95-.28.44-.1.91-.16,1.4-.16,2.53,0,2.91,1.61,2.91,2.57v9.23c.68-.36,1.44-.69,2.28-.97,1.2-.41,2.62-.62,4.22-.62,1.79,0,3.49.3,5.06.88,1.58.59,2.97,1.49,4.13,2.67,1.16,1.18,2.08,2.7,2.73,4.5.64,1.79.97,3.91.97,6.3s-.34,4.57-1,6.36c-.67,1.8-1.62,3.32-2.82,4.5-1.21,1.18-2.67,2.08-4.37,2.65-1.67.56-3.52.85-5.5.85ZM160.82,224.64c.51.33,1.22.66,2.11.97,1.01.36,2.22.54,3.59.54,1.22,0,2.32-.19,3.3-.56.96-.36,1.79-.94,2.49-1.7.7-.77,1.26-1.77,1.65-2.96.4-1.21.6-2.67.6-4.34s-.2-3.14-.6-4.37c-.39-1.2-.94-2.2-1.64-2.95-.7-.75-1.54-1.31-2.49-1.68-.97-.37-2.05-.56-3.18-.56-1.24,0-2.38.22-3.39.66-.94.41-1.76.9-2.43,1.44v15.51Z"/>
      <path class="st15" d="M167.32,202.76c1.74,0,3.36.28,4.87.85,1.51.57,2.82,1.42,3.94,2.55,1.11,1.13,1.98,2.57,2.61,4.31.62,1.74.94,3.78.94,6.12s-.32,4.44-.96,6.18c-.64,1.74-1.54,3.17-2.69,4.31-1.15,1.13-2.54,1.97-4.17,2.52-1.62.55-3.4.82-5.33.82s-3.52-.22-5.02-.65c-1.49-.43-2.71-.94-3.66-1.5-.79-.49-1.34-.97-1.64-1.45-.3-.47-.45-1.11-.45-1.9v-31.96c.19-.08.48-.16.88-.25.4-.09.82-.14,1.28-.14,1.59,0,2.38.68,2.38,2.04v10.14c.83-.53,1.82-.99,2.98-1.39,1.15-.4,2.5-.59,4.05-.59ZM166.64,206.5c-1.32,0-2.52.24-3.6.71-1.08.47-1.99,1.03-2.75,1.67v16.04c.57.42,1.39.81,2.47,1.19s2.33.57,3.77.57c1.28,0,2.45-.2,3.49-.59,1.04-.4,1.94-1.01,2.69-1.84.76-.83,1.34-1.88,1.76-3.15.42-1.27.62-2.77.62-4.51s-.21-3.25-.62-4.53c-.42-1.28-1-2.33-1.76-3.15-.76-.81-1.65-1.42-2.69-1.81-1.04-.4-2.16-.59-3.37-.59Z"/>
      <path class="st15" d="M187.38,230.49c-2.58,0-2.96-1.61-2.96-2.57v-34.97c0-.22.13-.41.33-.49.21-.08.52-.18.95-.28.44-.1.89-.16,1.34-.16,2.58,0,2.96,1.61,2.96,2.57v34.97c0,.22-.13.41-.33.49-.21.08-.51.17-.92.28-.42.1-.89.16-1.38.16Z"/>
      <path class="st15" d="M188.63,229.82c-.38.09-.79.14-1.25.14-1.62,0-2.44-.68-2.44-2.04v-34.97c.19-.08.48-.16.88-.25.4-.09.8-.14,1.22-.14,1.62,0,2.44.68,2.44,2.04v34.97c-.19.08-.47.16-.85.26Z"/>
      <path class="st15" d="M207.61,230.94c-2.02,0-3.88-.34-5.52-1-1.65-.67-3.09-1.65-4.27-2.91-1.18-1.26-2.09-2.79-2.72-4.55-.62-1.75-.94-3.73-.94-5.9s.33-4.16.97-5.91c.65-1.76,1.57-3.29,2.75-4.54,1.18-1.26,2.62-2.24,4.27-2.91,1.65-.66,3.49-1,5.47-1s3.82.34,5.47,1c1.65.67,3.08,1.65,4.24,2.91,1.16,1.26,2.07,2.78,2.71,4.54.64,1.75.97,3.74.97,5.91s-.32,4.15-.94,5.9c-.63,1.76-1.53,3.29-2.69,4.54-1.16,1.26-2.59,2.24-4.24,2.91-1.64.66-3.5,1-5.53,1ZM207.61,207.03c-2.43,0-4.28.81-5.66,2.47-1.39,1.67-2.09,4.05-2.09,7.09s.69,5.47,2.06,7.12c1.36,1.64,3.22,2.44,5.69,2.44s4.31-.81,5.65-2.47c1.35-1.67,2.04-4.06,2.04-7.09s-.69-5.42-2.06-7.09c-1.36-1.66-3.2-2.47-5.63-2.47Z"/>
      <path class="st15" d="M220.48,216.59c0,2.12-.3,4.02-.91,5.72-.6,1.7-1.46,3.16-2.58,4.36-1.11,1.21-2.47,2.13-4.05,2.78s-3.36.96-5.33.96-3.74-.32-5.33-.96-2.95-1.57-4.08-2.78c-1.13-1.21-2-2.66-2.61-4.36-.6-1.7-.91-3.61-.91-5.72s.31-4.02.93-5.72c.62-1.7,1.5-3.15,2.64-4.36,1.13-1.21,2.49-2.13,4.08-2.78,1.59-.64,3.34-.96,5.27-.96s3.68.32,5.27.96c1.59.64,2.94,1.57,4.05,2.78,1.11,1.21,1.98,2.66,2.61,4.36.62,1.7.94,3.61.94,5.72ZM207.61,206.5c-2.57,0-4.59.89-6.06,2.66s-2.21,4.25-2.21,7.42.73,5.7,2.18,7.45c1.45,1.76,3.49,2.64,6.09,2.64s4.63-.89,6.06-2.66c1.44-1.78,2.15-4.25,2.15-7.43s-.73-5.65-2.18-7.42c-1.46-1.78-3.47-2.66-6.04-2.66Z"/>
      <path class="st15" d="M234.93,241.66c-1.97,0-3.67-.21-5.05-.62-1.4-.41-2.34-.78-2.88-1.11-1.29-.73-1.95-1.7-1.95-2.89,0-.64.15-1.18.46-1.63.29-.43.68-.77,1.13-1,.07-.04.16-.06.24-.06.11,0,.23.04.32.11.75.57,1.82,1.11,3.2,1.6,1.37.49,2.9.73,4.53.73,2.4,0,4.24-.5,5.48-1.5,1.2-.97,1.81-2.57,1.81-4.77v-2.57c-.55.32-1.2.61-1.94.86-1.16.39-2.56.59-4.16.59-1.71,0-3.35-.25-4.86-.73-1.54-.49-2.91-1.29-4.08-2.38-1.17-1.09-2.11-2.52-2.79-4.24-.68-1.71-1.03-3.82-1.03-6.26,0-2.21.34-4.18,1-5.86.67-1.69,1.62-3.12,2.82-4.27,1.2-1.14,2.65-2.01,4.3-2.58,1.64-.57,3.47-.85,5.44-.85,1.78,0,3.44.23,4.94.67,1.5.45,2.77,1.01,3.79,1.68.62.41,1.12.88,1.52,1.4.43.57.65,1.26.65,2.05v22.78c0,1.96-.33,3.65-.99,5.02-.66,1.37-1.59,2.51-2.77,3.37-1.17.85-2.55,1.48-4.12,1.87-1.55.39-3.23.58-5,.58ZM236.92,207.03c-2.41,0-4.35.73-5.77,2.17-1.42,1.44-2.14,3.64-2.14,6.54,0,1.63.2,3.03.59,4.16.39,1.11.93,2.03,1.61,2.73.67.69,1.48,1.2,2.4,1.51.94.32,1.96.48,3.03.48,1.42,0,2.6-.22,3.48-.65.83-.41,1.54-.87,2.11-1.38v-14.21c-.56-.33-1.25-.63-2.05-.9-.91-.3-2.01-.45-3.26-.45Z"/>
      <path class="st15" d="M242.75,226.96c-.64.53-1.52.98-2.64,1.36-1.11.38-2.45.57-4,.57-1.66,0-3.23-.23-4.7-.71-1.47-.47-2.77-1.23-3.88-2.27-1.11-1.04-2-2.39-2.66-4.05-.66-1.66-.99-3.68-.99-6.06,0-2.15.32-4.04.96-5.67.64-1.62,1.54-2.98,2.69-4.08,1.15-1.1,2.52-1.92,4.11-2.47,1.59-.55,3.34-.82,5.27-.82,1.74,0,3.33.22,4.79.65,1.45.44,2.67.97,3.66,1.62.57.38,1.03.8,1.39,1.27.36.47.54,1.05.54,1.73v22.78c0,1.89-.31,3.49-.94,4.79-.62,1.3-1.49,2.36-2.61,3.17-1.12.81-2.43,1.41-3.94,1.78-1.51.38-3.14.57-4.87.57-1.93,0-3.56-.2-4.9-.59-1.34-.4-2.26-.75-2.75-1.05-1.13-.64-1.7-1.45-1.7-2.44,0-.53.12-.97.37-1.33.25-.36.56-.63.94-.82.79.6,1.91,1.16,3.34,1.67,1.44.51,3,.76,4.7.76,2.53,0,4.47-.54,5.81-1.62,1.34-1.08,2.01-2.81,2.01-5.19v-3.57ZM236.63,225.15c1.51,0,2.75-.24,3.71-.71s1.77-1.01,2.41-1.62v-14.73c-.64-.42-1.45-.78-2.41-1.11-.96-.32-2.11-.48-3.43-.48-2.57,0-4.62.78-6.15,2.32-1.53,1.55-2.3,3.85-2.3,6.91,0,1.7.21,3.15.62,4.34.42,1.19.99,2.16,1.73,2.92.74.76,1.61,1.3,2.61,1.64,1,.34,2.07.51,3.2.51Z"/>
      <path class="st15" d="M276.36,231c-3.65,0-6.52-.74-8.55-2.2-2.08-1.5-3.14-3.68-3.14-6.49,0-2.65.89-4.69,2.64-6.05,1.69-1.32,4.09-2.15,7.13-2.46l7.58-.75v-1.11c0-1.73-.49-2.95-1.49-3.72-1.03-.79-2.47-1.19-4.27-1.19-1.53,0-2.98.22-4.31.65-1.36.44-2.59.94-3.66,1.5-.08.04-.16.06-.24.06-.12,0-.25-.04-.35-.13-.33-.29-.64-.62-.9-1-.31-.43-.47-.91-.47-1.44,0-.65.17-1.19.51-1.63.31-.4.78-.76,1.41-1.1,1.06-.55,2.29-.98,3.65-1.27,1.35-.29,2.84-.44,4.42-.44,3.39,0,6.13.78,8.14,2.32,2.06,1.57,3.1,4.06,3.1,7.39v13.43c0,.94-.2,1.69-.58,2.21-.36.49-.9.95-1.6,1.36-.95.55-2.2,1.04-3.73,1.44-1.53.41-3.3.61-5.26.61ZM275.57,218.36c-1.86.18-3.24.59-4.11,1.23-.81.6-1.2,1.47-1.2,2.67,0,1.27.46,2.21,1.42,2.89,1,.71,2.58,1.06,4.68,1.06,1.53,0,2.8-.15,3.78-.46.82-.25,1.44-.5,1.87-.73v-7.33l-6.45.67Z"/>
      <path class="st15" d="M276.3,202.76c3.29,0,5.89.74,7.82,2.21,1.93,1.47,2.89,3.8,2.89,6.97v13.43c0,.83-.16,1.46-.48,1.9-.32.44-.8.84-1.45,1.22-.91.53-2.11.99-3.6,1.39s-3.2.59-5.13.59c-3.55,0-6.3-.7-8.25-2.1-1.95-1.4-2.92-3.42-2.92-6.06,0-2.49.81-4.37,2.44-5.64,1.62-1.27,3.91-2.05,6.86-2.35l8.05-.79v-1.59c0-1.89-.57-3.27-1.7-4.14-1.13-.87-2.66-1.3-4.59-1.3-1.59,0-3.08.23-4.48.68-1.4.45-2.65.96-3.74,1.53-.3-.26-.58-.57-.82-.91-.25-.34-.37-.72-.37-1.13,0-.53.13-.96.4-1.3.26-.34.68-.66,1.25-.96,1.02-.53,2.19-.93,3.51-1.22,1.32-.28,2.76-.43,4.31-.43ZM276.36,226.73c1.59,0,2.9-.16,3.94-.48,1.04-.32,1.79-.63,2.24-.93v-8.22l-7.03.74c-1.97.19-3.42.63-4.36,1.33-.94.7-1.42,1.73-1.42,3.09,0,1.44.55,2.54,1.64,3.32,1.1.77,2.76,1.16,4.99,1.16Z"/>
      <path class="st15" d="M303.9,230.94c-1.89,0-3.63-.23-5.16-.67-1.53-.44-2.8-.97-3.78-1.56-.88-.54-1.47-1.07-1.82-1.61-.36-.55-.54-1.29-.54-2.18v-31.96c0-.22.13-.41.33-.49.21-.08.52-.17.95-.28.44-.1.91-.16,1.4-.16,2.53,0,2.91,1.61,2.91,2.57v9.23c.68-.36,1.44-.69,2.28-.97,1.2-.41,2.62-.62,4.22-.62,1.79,0,3.49.3,5.06.88,1.58.59,2.97,1.49,4.13,2.67,1.16,1.18,2.08,2.7,2.73,4.5.64,1.79.97,3.91.97,6.3s-.34,4.57-1,6.36c-.67,1.8-1.62,3.32-2.82,4.5-1.21,1.18-2.67,2.08-4.37,2.65-1.67.56-3.52.85-5.5.85ZM298.2,224.64c.51.33,1.22.66,2.11.97,1.01.36,2.22.54,3.59.54,1.22,0,2.32-.19,3.3-.56.96-.36,1.79-.94,2.49-1.7.7-.77,1.25-1.77,1.65-2.96.4-1.21.6-2.67.6-4.34s-.2-3.14-.6-4.37c-.39-1.2-.94-2.2-1.64-2.95-.7-.75-1.54-1.31-2.49-1.68-.97-.37-2.05-.56-3.18-.56-1.24,0-2.38.22-3.39.66-.94.41-1.76.9-2.43,1.44v15.51Z"/>
      <path class="st15" d="M304.7,202.76c1.74,0,3.36.28,4.87.85,1.51.57,2.82,1.42,3.94,2.55,1.11,1.13,1.98,2.57,2.61,4.31.62,1.74.94,3.78.94,6.12s-.32,4.44-.96,6.18c-.64,1.74-1.54,3.17-2.69,4.31-1.15,1.13-2.54,1.97-4.17,2.52-1.62.55-3.4.82-5.33.82s-3.52-.22-5.02-.65c-1.49-.43-2.71-.94-3.66-1.5-.79-.49-1.34-.97-1.64-1.45-.3-.47-.45-1.11-.45-1.9v-31.96c.19-.08.48-.16.88-.25.4-.09.82-.14,1.28-.14,1.59,0,2.38.68,2.38,2.04v10.14c.83-.53,1.82-.99,2.98-1.39,1.15-.4,2.5-.59,4.05-.59ZM304.02,206.5c-1.32,0-2.52.24-3.6.71-1.08.47-1.99,1.03-2.75,1.67v16.04c.57.42,1.39.81,2.47,1.19s2.33.57,3.77.57c1.28,0,2.45-.2,3.49-.59,1.04-.4,1.94-1.01,2.69-1.84.76-.83,1.34-1.88,1.76-3.15.42-1.27.62-2.77.62-4.51s-.21-3.25-.62-4.53c-.42-1.28-1-2.33-1.76-3.15-.76-.81-1.65-1.42-2.69-1.81-1.04-.4-2.16-.59-3.37-.59Z"/>
      <path class="st15" d="M333.32,230.94c-2.02,0-3.88-.34-5.52-1-1.65-.67-3.09-1.65-4.27-2.91-1.18-1.26-2.09-2.79-2.72-4.55-.62-1.75-.94-3.73-.94-5.9s.33-4.16.97-5.91c.65-1.76,1.57-3.29,2.75-4.54,1.18-1.26,2.62-2.24,4.27-2.91,1.65-.66,3.49-1,5.47-1s3.82.34,5.47,1c1.65.67,3.08,1.65,4.24,2.91,1.16,1.26,2.07,2.78,2.71,4.54.64,1.75.97,3.74.97,5.91s-.32,4.15-.94,5.9c-.63,1.76-1.53,3.29-2.69,4.54-1.16,1.26-2.59,2.24-4.24,2.91-1.64.66-3.5,1-5.53,1ZM333.32,207.03c-2.43,0-4.28.81-5.66,2.47-1.39,1.67-2.09,4.05-2.09,7.09s.69,5.47,2.06,7.12c1.36,1.64,3.22,2.44,5.69,2.44s4.31-.81,5.65-2.47c1.35-1.67,2.04-4.06,2.04-7.09s-.69-5.42-2.06-7.09c-1.36-1.66-3.2-2.47-5.63-2.47Z"/>
      <path class="st15" d="M346.18,216.59c0,2.12-.3,4.02-.91,5.72-.6,1.7-1.46,3.16-2.58,4.36-1.11,1.21-2.47,2.13-4.05,2.78s-3.36.96-5.33.96-3.74-.32-5.33-.96-2.95-1.57-4.08-2.78c-1.13-1.21-2-2.66-2.61-4.36-.6-1.7-.91-3.61-.91-5.72s.31-4.02.93-5.72c.62-1.7,1.5-3.15,2.64-4.36,1.13-1.21,2.49-2.13,4.08-2.78,1.59-.64,3.34-.96,5.27-.96s3.68.32,5.27.96c1.59.64,2.94,1.57,4.05,2.78,1.11,1.21,1.98,2.66,2.61,4.36.62,1.7.94,3.61.94,5.72ZM333.32,206.5c-2.57,0-4.59.89-6.06,2.66s-2.21,4.25-2.21,7.42.73,5.7,2.18,7.45c1.45,1.76,3.49,2.64,6.09,2.64s4.63-.89,6.06-2.66c1.44-1.78,2.15-4.25,2.15-7.43s-.73-5.65-2.18-7.42c-1.46-1.78-3.47-2.66-6.04-2.66Z"/>
      <path class="st15" d="M361.54,230.94c-3.89,0-6.93-.88-9.03-2.61-2.14-1.76-3.22-4.53-3.22-8.23v-16.49c0-.22.13-.41.33-.49.22-.09.53-.18.95-.28.44-.1.91-.16,1.4-.16,1.88,0,2.91.93,2.91,2.62v14.56c0,2.28.58,3.9,1.73,4.83,1.18.96,2.86,1.44,5,1.44,1.46,0,2.7-.15,3.7-.46.86-.26,1.57-.53,2.12-.8v-21.28c0-.22.13-.41.33-.49.22-.09.53-.18.95-.28.44-.1.89-.16,1.34-.16,2.58,0,2.96,1.64,2.96,2.62v19.72c0,.87-.12,1.56-.36,2.11-.26.58-.82,1.12-1.72,1.63-.9.51-2.15,1-3.71,1.46-1.57.47-3.48.7-5.68.7Z"/>
      <path class="st15" d="M349.81,203.61c.19-.08.48-.16.88-.26.4-.09.82-.14,1.28-.14,1.59,0,2.38.7,2.38,2.1v14.56c0,2.46.64,4.2,1.93,5.24,1.28,1.04,3.06,1.56,5.33,1.56,1.51,0,2.8-.16,3.85-.48,1.06-.32,1.89-.65,2.49-.99v-21.59c.19-.08.48-.16.88-.26.4-.09.8-.14,1.22-.14,1.62,0,2.44.7,2.44,2.1v19.72c0,.79-.1,1.43-.31,1.9-.21.47-.71.93-1.5,1.39-.87.49-2.07.96-3.6,1.42-1.53.45-3.37.68-5.53.68-3.78,0-6.68-.83-8.7-2.49-2.02-1.66-3.03-4.27-3.03-7.82v-16.49Z"/>
      <path class="st15" d="M386.53,230.94c-2.74,0-5.01-.62-6.74-1.85-1.78-1.27-2.69-3.38-2.69-6.27v-26.92c0-.22.13-.41.33-.49.21-.08.52-.17.95-.28.44-.1.91-.16,1.4-.16,2.53,0,2.91,1.61,2.91,2.57v5.99h8.77c.19,0,.36.1.45.26.13.22.26.5.39.86.13.38.2.79.2,1.22,0,2.14-1.4,2.45-2.23,2.45h-7.58v14.21c0,1.35.35,2.25,1.06,2.78.75.55,1.86.83,3.29.83.59,0,1.27-.11,2.01-.32.75-.21,1.38-.46,1.87-.74.08-.05.17-.07.26-.07.14,0,.27.05.37.15.26.26.5.58.71.97.23.42.35.91.35,1.45,0,1.04-.59,1.88-1.75,2.5-1.06.57-2.51.86-4.33.86Z"/>
      <path class="st15" d="M386.53,230.42c-2.65,0-4.79-.59-6.43-1.76-1.64-1.17-2.47-3.12-2.47-5.84v-26.92c.19-.08.48-.16.88-.25.4-.09.82-.14,1.28-.14,1.59,0,2.38.68,2.38,2.04v6.52h9.29c.11.19.23.44.34.76s.17.67.17,1.05c0,1.29-.57,1.93-1.7,1.93h-8.1v14.74c0,1.51.43,2.58,1.27,3.2.85.62,2.05.93,3.6.93.64,0,1.36-.11,2.15-.34.79-.23,1.45-.49,1.98-.79.23.23.43.51.62.85.19.34.28.74.28,1.19,0,.83-.49,1.51-1.47,2.04-.98.53-2.34.79-4.08.79Z"/>
      <path class="st15" d="M423.15,230.94c-1.89,0-3.63-.23-5.16-.67-1.53-.44-2.8-.97-3.78-1.56-.88-.54-1.47-1.07-1.82-1.61-.36-.55-.54-1.29-.54-2.18v-31.96c0-.22.13-.41.33-.49.21-.08.52-.17.95-.28.44-.1.91-.16,1.4-.16,2.53,0,2.91,1.61,2.91,2.57v9.23c.68-.36,1.44-.69,2.28-.97,1.2-.41,2.62-.62,4.22-.62,1.79,0,3.49.3,5.06.88,1.58.59,2.97,1.49,4.13,2.67,1.16,1.18,2.08,2.7,2.73,4.5.64,1.79.97,3.91.97,6.3s-.34,4.57-1,6.36c-.67,1.8-1.62,3.32-2.82,4.5-1.21,1.18-2.67,2.08-4.37,2.65-1.67.56-3.52.85-5.5.85ZM417.44,224.64c.51.33,1.22.66,2.11.97,1.01.36,2.22.54,3.59.54,1.22,0,2.32-.19,3.3-.56.96-.36,1.79-.94,2.49-1.7.7-.77,1.25-1.77,1.65-2.96.4-1.21.6-2.67.6-4.34s-.2-3.14-.6-4.37c-.39-1.2-.94-2.2-1.64-2.95-.7-.75-1.54-1.31-2.49-1.68-.97-.37-2.05-.56-3.18-.56-1.24,0-2.38.22-3.39.66-.94.41-1.76.9-2.43,1.44v15.51Z"/>
      <path class="st15" d="M423.94,202.76c1.74,0,3.36.28,4.87.85,1.51.57,2.82,1.42,3.94,2.55,1.11,1.13,1.98,2.57,2.61,4.31.62,1.74.94,3.78.94,6.12s-.32,4.44-.96,6.18c-.64,1.74-1.54,3.17-2.69,4.31-1.15,1.13-2.54,1.97-4.17,2.52-1.62.55-3.4.82-5.33.82s-3.52-.22-5.02-.65c-1.49-.43-2.71-.94-3.66-1.5-.79-.49-1.34-.97-1.64-1.45-.3-.47-.45-1.11-.45-1.9v-31.96c.19-.08.48-.16.88-.25.4-.09.82-.14,1.28-.14,1.59,0,2.38.68,2.38,2.04v10.14c.83-.53,1.82-.99,2.98-1.39,1.15-.4,2.5-.59,4.05-.59ZM423.26,206.5c-1.32,0-2.52.24-3.6.71-1.08.47-1.99,1.03-2.75,1.67v16.04c.57.42,1.39.81,2.47,1.19s2.33.57,3.77.57c1.28,0,2.45-.2,3.49-.59,1.04-.4,1.94-1.01,2.69-1.84.76-.83,1.34-1.88,1.76-3.15.42-1.27.62-2.77.62-4.51s-.21-3.25-.62-4.53c-.42-1.28-1-2.33-1.76-3.15-.76-.81-1.65-1.42-2.69-1.81-1.04-.4-2.16-.59-3.37-.59Z"/>
      <path class="st15" d="M444.97,230.49c-2.58,0-2.96-1.61-2.96-2.57v-24.31c0-.22.13-.41.33-.49.22-.09.53-.18.95-.28.44-.1.91-.16,1.4-.16,1.88,0,2.91.93,2.91,2.62v24.26c0,.22-.13.41-.33.49-.21.08-.51.17-.92.28-.42.1-.89.16-1.37.16ZM444.8,198.58c-1.01,0-1.85-.33-2.5-.98-.65-.64-.98-1.45-.98-2.38s.33-1.74.98-2.39c.65-.65,1.49-.98,2.5-.98s1.84.33,2.48.98c.63.65.94,1.45.94,2.38s-.32,1.73-.94,2.38c-.63.65-1.46.98-2.48.98Z"/>
      <path class="st15" d="M441.85,195.22c0-.79.27-1.46.82-2.01.55-.55,1.26-.82,2.13-.82s1.57.27,2.1.82c.53.55.79,1.22.79,2.01s-.26,1.46-.79,2.01c-.53.55-1.23.82-2.1.82s-1.58-.27-2.13-.82c-.55-.55-.82-1.22-.82-2.01ZM447.06,229.57c-.19.08-.47.16-.85.26-.38.09-.79.14-1.25.14-1.62,0-2.44-.68-2.44-2.04v-24.31c.19-.08.48-.16.88-.26.4-.09.82-.14,1.27-.14,1.59,0,2.38.7,2.38,2.1v24.26Z"/>
      <path class="st15" d="M464.86,230.94c-2.74,0-5.01-.62-6.74-1.85-1.78-1.27-2.69-3.38-2.69-6.27v-26.92c0-.22.13-.41.33-.49.21-.08.52-.17.95-.28.43-.1.91-.16,1.4-.16,2.53,0,2.91,1.61,2.91,2.57v5.99h8.77c.19,0,.36.1.45.26.13.22.26.5.39.86.13.38.2.79.2,1.22,0,2.14-1.4,2.45-2.23,2.45h-7.58v14.21c0,1.35.35,2.25,1.06,2.78.75.55,1.86.83,3.29.83.59,0,1.27-.11,2.01-.32.75-.21,1.38-.46,1.87-.74.08-.05.17-.07.26-.07.14,0,.27.05.37.15.26.26.5.58.71.97.23.42.35.91.35,1.45,0,1.04-.59,1.88-1.75,2.5-1.06.57-2.51.86-4.33.86Z"/>
      <path class="st15" d="M464.86,230.42c-2.65,0-4.79-.59-6.43-1.76-1.64-1.17-2.47-3.12-2.47-5.84v-26.92c.19-.08.48-.16.88-.25.4-.09.82-.14,1.28-.14,1.59,0,2.38.68,2.38,2.04v6.52h9.29c.11.19.23.44.34.76s.17.67.17,1.05c0,1.29-.57,1.93-1.7,1.93h-8.1v14.74c0,1.51.43,2.58,1.27,3.2.85.62,2.05.93,3.6.93.64,0,1.36-.11,2.15-.34.79-.23,1.45-.49,1.98-.79.23.23.43.51.62.85.19.34.28.74.28,1.19,0,.83-.49,1.51-1.47,2.04-.98.53-2.34.79-4.08.79Z"/>
      <path class="st15" d="M487.13,230.94c-2.02,0-3.9-.3-5.61-.88-1.73-.59-3.24-1.48-4.5-2.66-1.26-1.18-2.26-2.69-2.96-4.47-.7-1.77-1.06-3.89-1.06-6.29s.38-4.46,1.12-6.24c.74-1.78,1.75-3.3,3.01-4.51,1.26-1.22,2.76-2.14,4.47-2.75,1.69-.6,3.52-.91,5.42-.91,1.2,0,2.33.11,3.37.32,1.04.22,1.96.53,2.72.93.78.41,1.39.88,1.83,1.4.48.57.72,1.17.72,1.78,0,.57-.17,1.08-.51,1.51-.32.41-.73.73-1.22.95-.07.03-.14.05-.22.05-.1,0-.21-.03-.3-.09-.8-.54-1.68-1.02-2.63-1.42-.91-.39-2.14-.58-3.65-.58-1.21,0-2.35.21-3.38.61-1.02.4-1.91,1.01-2.64,1.8-.74.79-1.33,1.8-1.76,2.99-.43,1.2-.65,2.6-.65,4.16,0,3.1.77,5.48,2.29,7.09,1.53,1.62,3.54,2.41,6.13,2.41,1.51,0,2.78-.21,3.77-.61,1.02-.42,1.94-.9,2.74-1.45.09-.06.19-.09.3-.09.09,0,.17.02.25.06.48.26.87.59,1.18.99.34.43.51.96.51,1.57,0,.66-.26,1.28-.76,1.83-.46.5-1.1.95-1.9,1.31-.77.35-1.69.64-2.72.86-1.04.21-2.17.32-3.37.32Z"/>
      <path class="st15" d="M487.13,206.56c-1.29,0-2.48.22-3.57.65-1.1.44-2.04,1.08-2.83,1.93s-1.42,1.91-1.87,3.17c-.45,1.27-.68,2.71-.68,4.34,0,3.25.81,5.73,2.44,7.45,1.62,1.72,3.8,2.58,6.52,2.58,1.59,0,2.91-.22,3.97-.65,1.06-.43,2-.93,2.83-1.5.42.23.76.51,1.02.85.26.34.4.76.4,1.25,0,.53-.21,1.02-.62,1.47-.42.45-.99.85-1.73,1.19-.74.34-1.61.61-2.61.82-1,.21-2.09.31-3.26.31-1.97,0-3.78-.28-5.44-.85-1.66-.57-3.1-1.42-4.31-2.55-1.21-1.13-2.15-2.56-2.83-4.28-.68-1.72-1.02-3.75-1.02-6.09s.36-4.32,1.08-6.04c.72-1.72,1.68-3.16,2.89-4.34,1.21-1.17,2.64-2.05,4.28-2.64s3.39-.88,5.24-.88c1.17,0,2.26.1,3.26.31,1,.21,1.86.5,2.58.88.72.38,1.28.8,1.67,1.28.4.47.59.96.59,1.45,0,.45-.13.85-.4,1.19-.26.34-.6.61-1.02.79-.83-.57-1.74-1.06-2.72-1.47-.98-.42-2.27-.62-3.85-.62Z"/>
      <path class="st15" d="M511.73,230.94c-2.02,0-3.88-.34-5.52-1-1.65-.67-3.09-1.65-4.27-2.91-1.18-1.26-2.09-2.79-2.72-4.55-.62-1.75-.94-3.73-.94-5.9s.33-4.16.97-5.91c.65-1.76,1.57-3.29,2.75-4.54,1.18-1.26,2.62-2.24,4.27-2.91,1.65-.66,3.49-1,5.47-1s3.82.34,5.47,1c1.65.67,3.08,1.65,4.24,2.91,1.16,1.26,2.07,2.78,2.71,4.54.64,1.75.97,3.74.97,5.91s-.32,4.15-.94,5.9c-.63,1.76-1.53,3.29-2.69,4.54-1.16,1.26-2.59,2.24-4.24,2.91-1.64.66-3.5,1-5.53,1ZM511.73,207.03c-2.43,0-4.28.81-5.66,2.47-1.39,1.67-2.09,4.05-2.09,7.09s.69,5.47,2.06,7.12c1.36,1.64,3.22,2.44,5.69,2.44s4.31-.81,5.65-2.47c1.35-1.67,2.04-4.06,2.04-7.09s-.69-5.42-2.06-7.09c-1.36-1.66-3.2-2.47-5.63-2.47Z"/>
      <path class="st15" d="M524.59,216.59c0,2.12-.3,4.02-.91,5.72-.6,1.7-1.46,3.16-2.58,4.36-1.11,1.21-2.47,2.13-4.05,2.78s-3.36.96-5.33.96-3.74-.32-5.33-.96-2.95-1.57-4.08-2.78c-1.13-1.21-2-2.66-2.61-4.36-.6-1.7-.91-3.61-.91-5.72s.31-4.02.93-5.72c.62-1.7,1.5-3.15,2.64-4.36,1.13-1.21,2.49-2.13,4.08-2.78,1.59-.64,3.34-.96,5.27-.96s3.68.32,5.27.96c1.59.64,2.94,1.57,4.05,2.78,1.11,1.21,1.98,2.66,2.61,4.36.62,1.7.94,3.61.94,5.72ZM511.73,206.5c-2.57,0-4.59.89-6.06,2.66s-2.21,4.25-2.21,7.42.73,5.7,2.18,7.45c1.45,1.76,3.49,2.64,6.09,2.64s4.63-.89,6.06-2.66c1.44-1.78,2.15-4.25,2.15-7.43s-.73-5.65-2.18-7.42c-1.46-1.78-3.47-2.66-6.04-2.66Z"/>
      <path class="st15" d="M532.07,230.49c-2.58,0-2.96-1.61-2.96-2.57v-24.31c0-.22.13-.41.33-.49.22-.09.53-.18.95-.28.44-.1.91-.16,1.4-.16,1.88,0,2.91.93,2.91,2.62v24.26c0,.22-.13.41-.33.49-.21.08-.51.17-.92.28-.42.1-.89.16-1.37.16ZM531.9,198.58c-1.01,0-1.85-.33-2.5-.98-.65-.64-.98-1.45-.98-2.38s.33-1.74.98-2.39c.65-.65,1.49-.98,2.5-.98s1.84.33,2.48.98c.63.65.94,1.45.94,2.38s-.32,1.73-.94,2.38c-.63.65-1.46.98-2.48.98Z"/>
      <path class="st15" d="M528.96,195.22c0-.79.27-1.46.82-2.01.55-.55,1.26-.82,2.13-.82s1.57.27,2.1.82c.53.55.79,1.22.79,2.01s-.26,1.46-.79,2.01c-.53.55-1.23.82-2.1.82s-1.58-.27-2.13-.82c-.55-.55-.82-1.22-.82-2.01ZM534.17,229.57c-.19.08-.47.16-.85.26-.38.09-.79.14-1.25.14-1.62,0-2.44-.68-2.44-2.04v-24.31c.19-.08.48-.16.88-.26.4-.09.82-.14,1.27-.14,1.59,0,2.38.7,2.38,2.1v24.26Z"/>
      <path class="st15" d="M561.32,230.49c-2.58,0-2.96-1.61-2.96-2.57v-15.3c0-1.94-.54-3.37-1.59-4.24-1.09-.9-2.59-1.35-4.45-1.35-1.45,0-2.75.18-3.86.54-1.01.33-1.9.7-2.64,1.11v20.89c0,.22-.13.41-.33.49-.21.08-.51.17-.92.28-.42.1-.89.16-1.38.16-2.58,0-2.96-1.61-2.96-2.57v-19.33c0-.89.19-1.64.56-2.24.37-.58.97-1.13,1.84-1.67,1.02-.63,2.38-1.2,4.04-1.7,1.67-.5,3.57-.76,5.65-.76,3.54,0,6.39.82,8.46,2.44,2.11,1.65,3.18,4.25,3.18,7.73v17.17c0,.22-.13.41-.33.49-.21.09-.52.18-.95.28-.44.1-.89.16-1.34.16Z"/>
      <path class="st15" d="M557.1,207.97c-1.19-.98-2.79-1.47-4.79-1.47-1.51,0-2.85.19-4.02.57-1.17.38-2.17.81-3,1.3v21.2c-.19.08-.47.16-.85.26-.38.09-.79.14-1.25.14-1.62,0-2.44-.68-2.44-2.04v-19.33c0-.79.16-1.45.48-1.95.32-.51.88-1.01,1.67-1.5.98-.6,2.29-1.15,3.91-1.64,1.62-.49,3.46-.74,5.5-.74,3.44,0,6.15.78,8.13,2.32s2.98,3.99,2.98,7.31v17.17c-.19.08-.48.16-.88.26-.4.09-.8.14-1.22.14-1.62,0-2.44-.68-2.44-2.04v-15.3c0-2.12-.59-3.66-1.79-4.65Z"/>
      <path class="st15" d="M571.69,230.94c-1.13,0-2.04-.36-2.69-1.08-.64-.7-.96-1.56-.96-2.56s.32-1.92.96-2.62c.65-.72,1.55-1.08,2.69-1.08s2.03.37,2.66,1.09c.61.7.92,1.58.92,2.61s-.31,1.86-.92,2.56c-.63.72-1.53,1.09-2.66,1.09Z"/>
      <path class="st15" d="M568.57,227.3c0-.91.27-1.66.82-2.27.55-.6,1.31-.91,2.3-.91s1.74.3,2.27.91c.53.6.79,1.36.79,2.27s-.26,1.61-.79,2.21c-.53.6-1.29.91-2.27.91s-1.75-.3-2.3-.91c-.55-.6-.82-1.34-.82-2.21Z"/>
    </g>
  </g>
</svg>