<?xml version="1.0" encoding="UTF-8"?>
<svg id="Layer_1" xmlns="http://www.w3.org/2000/svg" version="1.1" viewBox="0 0 800 800">
  <!-- Generator: Adobe Illustrator 29.5.1, SVG Export Plug-In . SVG Version: 2.1.0 Build 141)  -->
  <defs>
    <style>
      .st0 {
        fill: none;
        stroke: #5fa2ff;
        stroke-linecap: round;
        stroke-linejoin: round;
        stroke-width: 66.67px;
      }
    </style>
  </defs>
  <g id="Interface__x2F__Shopping_x5F_Cart_x5F_01">
    <path id="Vector" class="st0" d="M566.67,566.67c-36.82,0-66.67,29.85-66.67,66.67s29.85,66.67,66.67,66.67,66.67-29.85,66.67-66.67-29.85-66.67-66.67-66.67ZM566.67,566.67h-256.87c-15.37,0-23.07,0-29.39-2.73-5.58-2.41-10.42-6.3-13.95-11.25-3.95-5.55-5.54-12.97-8.69-27.67l-82.04-382.86c-3.22-15.03-4.85-22.54-8.85-28.16-3.53-4.95-8.37-8.85-13.95-11.26-6.33-2.74-13.98-2.74-29.36-2.74h-23.55M200,200h429.11c24.06,0,36.08,0,44.15,5.01,7.07,4.39,12.25,11.28,14.51,19.29,2.58,9.15-.73,20.7-7.4,43.82l-46.15,160c-3.99,13.82-5.98,20.72-10.03,25.85-3.57,4.53-8.28,8.07-13.62,10.25-6.03,2.46-13.2,2.46-27.5,2.46h-325.39M266.67,700c-36.82,0-66.67-29.85-66.67-66.67s29.85-66.67,66.67-66.67,66.67,29.85,66.67,66.67-29.85,66.67-66.67,66.67h0Z"/>
  </g>
</svg>