<?xml version="1.0" encoding="UTF-8"?>
<svg id="Layer_1" xmlns="http://www.w3.org/2000/svg" version="1.1" viewBox="0 0 1000 1000">
  <!-- Generator: Adobe Illustrator 29.5.1, SVG Export Plug-In . SVG Version: 2.1.0 Build 141)  -->
  <defs>
    <style>
      .st0 {
        fill: #fff;
      }
    </style>
  </defs>
  <path class="st0" d="M556.54,440l-27.45,5h-5.46l-36.63-5c-24.5-9.02-78.68-58.21-78.68-90.19l-13.68-190.73c0-31.98,41.13-85.97,128.99-85.97h7.75c85.77,0,121.25,54.89,121.25,86.87l-20.01,200.32c0,31.98-42.64,61.19-76.08,79.7Z"/>
  <path class="st0" d="M500,421"/>
  <ellipse class="st0" cx="402.32" cy="263.5" rx="27.88" ry="51.53" transform="translate(-53.29 109.5) rotate(-14.55)"/>
  <ellipse class="st0" cx="642.64" cy="263.5" rx="51.53" ry="27.88" transform="translate(276.67 853.82) rotate(-80.5)"/>
  <path class="st0" d="M809.97,500l-123.22-20.66-65.75-39.34s-44,32-89,32-105.89-32-105.89-32c0,0-27.54,29.47-62.82,46.08l-125.26,13.92c-50.27,0-91.03,40.76-91.03,91.03l22.42,306.84h687.67l43.91-306.84c0-50.27-40.76-91.03-91.03-91.03Z"/>
  <rect class="st0" x="432.26" y="365.81" width="182.75" height="224.66"/>
</svg>