<?xml version="1.0" encoding="UTF-8"?>
<svg id="Layer_1" xmlns="http://www.w3.org/2000/svg" xmlns:xlink="http://www.w3.org/1999/xlink" version="1.1" viewBox="0 0 600 200">
  <!-- Generator: Adobe Illustrator 29.5.1, SVG Export Plug-In . SVG Version: 2.1.0 Build 141)  -->
  <defs>
    <style>
      .st0 {
        fill: url(#linear-gradient2);
      }

      .st1 {
        fill: url(#linear-gradient1);
      }

      .st2 {
        fill: url(#linear-gradient9);
      }

      .st3 {
        fill: url(#linear-gradient3);
      }

      .st4 {
        fill: url(#linear-gradient6);
      }

      .st5 {
        fill: url(#linear-gradient8);
      }

      .st6 {
        fill: url(#linear-gradient7);
      }

      .st7 {
        fill: url(#linear-gradient5);
      }

      .st8 {
        fill: url(#linear-gradient4);
      }

      .st9 {
        fill: url(#linear-gradient13);
      }

      .st10 {
        fill: url(#linear-gradient12);
      }

      .st11 {
        fill: url(#linear-gradient11);
      }

      .st12 {
        fill: url(#linear-gradient10);
      }

      .st13 {
        fill: url(#linear-gradient14);
      }

      .st14 {
        fill: url(#linear-gradient);
      }
    </style>
    <linearGradient id="linear-gradient" x1="51.77" y1="119.64" x2="51.77" y2="183.82" gradientTransform="translate(0 200) scale(1 -1)" gradientUnits="userSpaceOnUse">
      <stop offset="0" stop-color="#0070ff"/>
      <stop offset=".36" stop-color="#7fc5eb"/>
      <stop offset="1" stop-color="#fff"/>
    </linearGradient>
    <linearGradient id="linear-gradient1" x1="51.82" y1="120.68" x2="51.82" y2="182.74" gradientTransform="translate(0 200) scale(1 -1)" gradientUnits="userSpaceOnUse">
      <stop offset="0" stop-color="#0070ff"/>
      <stop offset=".58" stop-color="#7fc5eb"/>
      <stop offset=".92" stop-color="#fff"/>
    </linearGradient>
    <linearGradient id="linear-gradient2" x1="239.92" y1="119.72" x2="239.92" y2="176.28" gradientTransform="translate(0 200) scale(1 -1)" gradientUnits="userSpaceOnUse">
      <stop offset="0" stop-color="#0070ff"/>
      <stop offset=".58" stop-color="#7fc5eb"/>
      <stop offset=".92" stop-color="#fff"/>
    </linearGradient>
    <linearGradient id="linear-gradient3" x1="239.92" y1="120.78" x2="239.92" y2="175.22" gradientTransform="translate(0 200) scale(1 -1)" gradientUnits="userSpaceOnUse">
      <stop offset="0" stop-color="#0070ff"/>
      <stop offset=".58" stop-color="#7fc5eb"/>
      <stop offset=".92" stop-color="#fff"/>
    </linearGradient>
    <linearGradient id="linear-gradient4" x1="347.13" y1="119.73" x2="347.13" y2="183.91" gradientTransform="translate(0 200) scale(1 -1)" gradientUnits="userSpaceOnUse">
      <stop offset="0" stop-color="#0070ff"/>
      <stop offset=".58" stop-color="#7fc5eb"/>
      <stop offset=".92" stop-color="#fff"/>
    </linearGradient>
    <linearGradient id="linear-gradient5" x1="347.18" y1="120.76" x2="347.18" y2="182.82" gradientTransform="translate(0 200) scale(1 -1)" gradientUnits="userSpaceOnUse">
      <stop offset="0" stop-color="#0070ff"/>
      <stop offset=".58" stop-color="#7fc5eb"/>
      <stop offset=".92" stop-color="#fff"/>
    </linearGradient>
    <linearGradient id="linear-gradient6" x1="415.61" y1="119.55" x2="415.61" y2="176.21" gradientTransform="translate(0 200) scale(1 -1)" gradientUnits="userSpaceOnUse">
      <stop offset="0" stop-color="#0070ff"/>
      <stop offset=".58" stop-color="#7fc5eb"/>
      <stop offset=".92" stop-color="#fff"/>
    </linearGradient>
    <linearGradient id="linear-gradient7" x1="415.62" y1="120.6" x2="415.62" y2="175.13" gradientTransform="translate(0 200) scale(1 -1)" gradientUnits="userSpaceOnUse">
      <stop offset="0" stop-color="#0070ff"/>
      <stop offset=".58" stop-color="#7fc5eb"/>
      <stop offset=".92" stop-color="#fff"/>
    </linearGradient>
    <linearGradient id="linear-gradient8" x1="462.4" y1="119.82" x2="462.4" y2="175.38" gradientTransform="translate(0 200) scale(1 -1)" gradientUnits="userSpaceOnUse">
      <stop offset="0" stop-color="#0070ff"/>
      <stop offset=".58" stop-color="#7fc5eb"/>
      <stop offset=".92" stop-color="#fff"/>
    </linearGradient>
    <linearGradient id="linear-gradient9" x1="462.39" y1="120.84" x2="462.39" y2="174.3" gradientTransform="translate(0 200) scale(1 -1)" gradientUnits="userSpaceOnUse">
      <stop offset="0" stop-color="#0070ff"/>
      <stop offset=".58" stop-color="#7fc5eb"/>
      <stop offset=".92" stop-color="#fff"/>
    </linearGradient>
    <linearGradient id="linear-gradient10" x1="515.58" y1="119.81" x2="515.58" y2="176.28" gradientTransform="translate(0 200) scale(1 -1)" gradientUnits="userSpaceOnUse">
      <stop offset="0" stop-color="#0070ff"/>
      <stop offset=".58" stop-color="#7fc5eb"/>
      <stop offset=".92" stop-color="#fff"/>
    </linearGradient>
    <linearGradient id="linear-gradient11" x1="515.61" y1="120.87" x2="515.61" y2="175.23" gradientTransform="translate(0 200) scale(1 -1)" gradientUnits="userSpaceOnUse">
      <stop offset="0" stop-color="#0070ff"/>
      <stop offset=".58" stop-color="#7fc5eb"/>
      <stop offset=".92" stop-color="#fff"/>
    </linearGradient>
    <linearGradient id="linear-gradient12" x1="289.29" y1="142.34" x2="289.29" y2="153.76" gradientTransform="translate(0 200) scale(1 -1)" gradientUnits="userSpaceOnUse">
      <stop offset="0" stop-color="#0070ff"/>
      <stop offset=".58" stop-color="#7fc5eb"/>
      <stop offset=".92" stop-color="#fff"/>
    </linearGradient>
    <linearGradient id="linear-gradient13" x1="289.29" y1="143.39" x2="289.29" y2="152.71" gradientTransform="translate(0 200) scale(1 -1)" gradientUnits="userSpaceOnUse">
      <stop offset="0" stop-color="#0070ff"/>
      <stop offset=".58" stop-color="#7fc5eb"/>
      <stop offset=".92" stop-color="#fff"/>
    </linearGradient>
    <linearGradient id="linear-gradient14" x1="151.76" y1="119.85" x2="151.76" y2="176.04" gradientTransform="translate(0 200) scale(1 -1)" gradientUnits="userSpaceOnUse">
      <stop offset="0" stop-color="#0070ff"/>
      <stop offset=".58" stop-color="#7fc5eb"/>
      <stop offset=".92" stop-color="#fff"/>
    </linearGradient>
  </defs>
  <g>
    <path d="M206.7,35.41c-2.63-2.54-5.77-4.49-9.34-5.8-3.54-1.31-7.42-1.97-11.51-1.97s-7.96.66-11.47,1.97c-1.04.39-2.09.85-3.12,1.39-5.67,2.25-10.89,5.67-15.53,10.17-5.84-6.83-14.18-13.52-30.69-13.52-4.1,0-7.96.66-11.47,1.97-3.53,1.31-6.66,3.27-9.29,5.8-2.63,2.54-4.73,5.71-6.23,9.43-1.49,3.7-2.25,8.03-2.25,12.86s.74,9.16,2.2,12.89c1.47,3.75,3.53,6.94,6.14,9.48,2.6,2.54,5.73,4.49,9.3,5.81,3.54,1.3,7.43,1.97,11.58,1.97,1.2.13,2.4.2,3.58.2,9.7,0,18.59-4.43,27.15-13.55,13.67,12.09,24.58,13.42,28.68,13.42h0c.78,0,1.29-.05,1.48-.07,4.13,0,8.01-.67,11.53-1.97,3.57-1.31,6.71-3.27,9.34-5.8,2.63-2.54,4.72-5.73,6.19-9.48,1.46-3.73,2.2-8.07,2.2-12.89s-.76-9.15-2.25-12.86c-1.5-3.72-3.6-6.89-6.23-9.43v-.02ZM190.34,70.39c-8.92.11-13.92-1.94-15.68-3.03-6.39-3.93-9.76-7.42-10.93-9.13,1.05-1.72,5.94-7.53,10.49-11.34,3.11-2.6,8.02-5.63,11.64-5.63,3.88,0,6.86,1.31,9.12,4.02,2.27,2.72,3.43,6.9,3.43,12.42s-3.58,15.02-3.43,12.51,4.3.07-4.62.18h-.02ZM125.01,41.26c8.89.38,13.84,6.19,18.95,15.45.16.3.31.63.47.98.11.24.22.49.34.73-6.93,10-11.24,14.05-16.35,15.4-1.04.26-2.18.39-3.38.39-3.88,0-6.86-1.31-9.12-4.02-2.27-2.72-3.43-6.93-3.43-12.51s1.17-9.69,3.47-12.42c2.28-2.7,5.24-4.02,9.05-4.02v.02Z"/>
    <path d="M90.71,64.96c-.28-3.78-.59-7.73-.94-11.75-.35-4.12-.7-8.02-1.04-11.59-.35-3.66-.7-6.96-1.04-9.79-.35-2.85-.67-5.01-.95-6.41-.41-2.06-1.73-3.64-3.9-4.69-2.01-.96-4.68-1.45-7.93-1.45-1.87,0-3.61.18-5.17.55-1.56.36-2.88.81-3.92,1.33-.24.12-.42.32-.52.57-1.47,3.91-3.18,8.76-5.1,14.41-1.7,4.99-3.41,10.19-5.1,15.47-.47-1.39-.96-2.85-1.47-4.36-.8-2.39-1.61-4.8-2.44-7.23-.82-2.4-1.66-4.8-2.5-7.13-.83-2.32-1.64-4.45-2.41-6.33-1.06-2.57-2.65-4.46-4.72-5.61-2.02-1.12-4.78-1.69-8.2-1.69s-5.75.5-7.62,1.53c-1.85,1.02-3.07,1.95-3.72,2.85-.12.16-.19.35-.2.55-.21,3-.42,6.27-.62,9.72-.2,3.38-.43,6.94-.67,10.58-.24,3.57-.49,7.08-.73,10.54-.24,3.47-.45,6.74-.62,9.72-.17,2.96-.31,5.65-.42,8.01-.1,2.33-.16,4.18-.16,5.5,0,2.67.94,4.59,2.79,5.73,1.68,1.03,4,1.56,6.89,1.56,1.44,0,2.85-.13,4.19-.38,1.35-.26,2.41-.53,3.23-.82.4-.14.67-.51.69-.94.2-4.09.38-7.94.52-11.43.14-3.58.27-7.04.36-10.29.11-3.62.23-7.03.36-10.43.08-2.15.18-4.47.29-6.95.66,2.01,1.43,4.2,2.28,6.55,1.53,4.18,3.43,9.57,5.65,16.03.59,1.69,1.8,2.88,3.59,3.55,1.6.6,3.59.9,5.92.9,1.76,0,3.37-.23,4.78-.67,1.44-.46,2.65-1.08,3.58-1.86.15-.13.27-.29.33-.48,2.27-6.94,4.2-12.69,5.76-17.11.86-2.44,1.61-4.67,2.25-6.66.13,3.39.25,7.34.37,11.79.17,6.63.5,14.07.99,22.1.16,2.81,1.24,4.75,3.22,5.76,1.77.9,3.9,1.36,6.35,1.36,1.88,0,3.48-.17,4.73-.5,1.27-.34,2.48-.85,3.6-1.52.33-.2.53-.56.51-.95-.07-1.74-.21-4.19-.42-7.3-.21-3.12-.45-6.56-.73-10.34h.03Z"/>
    <path d="M261.41,26.9c-1.38,0-2.7.1-3.92.28-1.19.18-2.1.34-2.72.46-.49.1-.85.53-.85,1.03v15.05c0,3.39.02,6.9.05,10.43.02,2.08.08,4.25.19,6.47-.21-.47-.41-.93-.62-1.39-.88-1.94-1.85-3.91-2.88-5.85l-10.61-20.4c-1.33-2.52-3.03-4.18-5.05-4.94-1.89-.71-3.99-1.06-6.21-1.06-1.92,0-3.77.31-5.48.92-1.8.65-3.15,1.58-3.99,2.79-.13.18-.19.39-.19.61v46.68c0,2.73.67,4.69,2,5.83,1.3,1.12,3.39,1.66,6.4,1.66,1.3,0,2.58-.08,3.81-.24,1.21-.16,2.11-.29,2.75-.42.49-.1.85-.53.85-1.03v-16.86c0-3.03-.03-6.26-.09-9.58-.04-1.95-.12-3.97-.24-6.05.3.69.6,1.36.9,2.02.88,1.94,1.85,3.92,2.88,5.85l10.51,20.3c1.33,2.59,3.05,4.29,5.11,5.04,1.92.7,4,1.06,6.16,1.06s3.94-.24,5.48-.73c1.58-.49,2.86-1.16,3.82-1.97.23-.2.37-.49.37-.8v-47.67c0-2.73-.67-4.69-2-5.83-1.3-1.12-3.39-1.66-6.4-1.66h-.03Z"/>
    <path d="M387.16,64.96c-.28-3.78-.59-7.73-.94-11.75-.35-4.12-.7-8.02-1.04-11.59-.35-3.68-.7-6.98-1.04-9.79-.35-2.85-.67-5.01-.95-6.41-.41-2.06-1.73-3.64-3.9-4.69-2.01-.96-4.68-1.45-7.93-1.45-1.87,0-3.61.18-5.17.55-1.56.36-2.88.81-3.92,1.33-.24.12-.42.32-.52.57-1.47,3.91-3.18,8.76-5.1,14.41-1.7,4.99-3.41,10.19-5.1,15.47-.47-1.39-.97-2.85-1.47-4.36-.8-2.39-1.61-4.8-2.44-7.23-.83-2.41-1.67-4.81-2.5-7.13-.83-2.31-1.64-4.44-2.41-6.33-1.06-2.57-2.65-4.46-4.72-5.61-2.02-1.12-4.78-1.69-8.2-1.69s-5.75.5-7.62,1.53c-1.85,1.02-3.07,1.95-3.72,2.85-.12.16-.19.35-.2.55-.21,3-.42,6.27-.62,9.72-.2,3.38-.43,6.94-.67,10.58-.24,3.57-.49,7.08-.73,10.54-.24,3.47-.45,6.74-.62,9.72-.17,2.96-.31,5.65-.42,8.01-.1,2.31-.16,4.16-.16,5.5,0,2.67.94,4.59,2.79,5.73,1.68,1.03,4,1.56,6.89,1.56,1.44,0,2.85-.13,4.19-.38,1.35-.26,2.41-.53,3.23-.82.4-.14.67-.51.69-.94.2-4.09.38-7.94.52-11.43.14-3.52.26-6.98.36-10.29.11-3.62.23-7.03.36-10.43.08-2.15.18-4.47.29-6.95.66,2.01,1.43,4.2,2.28,6.55,1.53,4.18,3.43,9.57,5.65,16.03.59,1.69,1.8,2.88,3.59,3.55,1.6.6,3.59.9,5.92.9,1.76,0,3.37-.23,4.78-.67,1.44-.46,2.65-1.08,3.58-1.86.15-.13.27-.29.33-.48,2.27-6.94,4.2-12.69,5.76-17.11.86-2.44,1.61-4.67,2.25-6.66.13,3.39.25,7.34.37,11.79.17,6.63.5,14.07.99,22.1.16,2.81,1.24,4.75,3.22,5.76,1.77.9,3.9,1.36,6.35,1.36,1.88,0,3.48-.17,4.73-.5,1.27-.34,2.48-.85,3.6-1.52.33-.2.53-.56.51-.95-.07-1.76-.21-4.22-.42-7.3-.21-3.12-.45-6.56-.73-10.34h.03Z"/>
    <path d="M444.02,70.08c-1.26-4.32-2.59-8.78-3.95-13.24-1.33-4.37-2.69-8.77-4.04-13.06-1.32-4.21-2.58-7.97-3.73-11.18-.71-2.06-2.28-3.54-4.67-4.41-2.19-.79-4.74-1.2-7.56-1.2-1.95,0-3.94.25-5.92.76-2.03.52-3.5,1.06-4.5,1.66-.2.12-.35.29-.43.5-.55,1.36-1.23,3.17-2.01,5.4-.79,2.23-1.66,4.69-2.63,7.38-.96,2.67-1.97,5.53-3,8.49-1.02,2.94-2.01,5.85-2.95,8.67-.94,2.81-1.8,5.43-2.59,7.85-.79,2.44-1.41,4.5-1.82,6.1-.3,1.02-.57,1.93-.81,2.71-.27.88-.41,1.81-.41,2.76,0,2.11.84,3.76,2.5,4.9,1.55,1.07,3.72,1.59,6.63,1.59,1.28,0,2.39-.1,3.3-.3.86-.19,1.72-.41,2.53-.66.35-.11.62-.39.71-.74.42-1.61.92-3.49,1.49-5.61.5-1.86,1.05-3.76,1.62-5.66h16.2l1.94,6.54c.53,2.14,1.43,3.76,2.65,4.81,1.27,1.09,3.28,1.61,6.17,1.61,1.93,0,3.62-.27,5.04-.79,1.46-.54,2.6-1.29,3.38-2.21.23-.27.31-.63.21-.97-.98-3.48-2.11-7.41-3.36-11.7h.01ZM424.95,59.62h-10.16c.96-3.13,1.99-6.23,3.06-9.24.89-2.48,1.68-4.8,2.37-6.92.58,1.99,1.24,4.2,1.97,6.6.93,3.05,1.85,6.26,2.76,9.56Z"/>
    <path d="M489.37,28.26c-.2-.28-.52-.45-.86-.45h-39.61c-1.86,0-3.36.58-4.47,1.73-1.1,1.14-1.66,2.89-1.66,5.22,0,1.26.19,2.44.56,3.51.35,1.03.73,1.89,1.14,2.56.19.32.53.51.9.51h13.18v36.38c0,2.85.71,4.89,2.1,6.06,1.36,1.14,3.54,1.7,6.66,1.7,1.36,0,2.68-.08,3.94-.24,1.27-.16,2.24-.33,2.96-.53.46-.13.78-.54.78-1.02v-42.36h10c1.87,0,3.38-.6,4.49-1.78,1.09-1.16,1.64-2.9,1.64-5.16,0-1.25-.17-2.42-.5-3.49s-.75-1.96-1.23-2.64h-.02Z"/>
    <path d="M542.97,28.58c-1.42-1.13-3.53-1.68-6.46-1.68-1.32,0-2.63.1-3.91.28-1.24.18-2.21.33-2.89.46-.5.09-.87.53-.87,1.04v20.88h-17.38v-14.9c0-3-.75-5.08-2.23-6.19-1.41-1.06-3.54-1.57-6.52-1.57-1.26,0-2.54.1-3.82.28-1.24.18-2.21.33-2.89.46-.5.09-.87.53-.87,1.04v49.03c0,2.89.67,4.87,2.04,6.05,1.33,1.15,3.5,1.71,6.63,1.71,1.36,0,2.68-.08,3.94-.24,1.27-.16,2.24-.33,2.96-.53.46-.12.78-.54.78-1.02v-20.79h17.38v14.81c0,2.89.67,4.87,2.04,6.05,1.33,1.15,3.5,1.71,6.63,1.71,1.36,0,2.68-.08,3.94-.24,1.27-.16,2.24-.33,2.96-.53.46-.13.78-.54.78-1.02v-48.85c0-2.98-.74-5.09-2.21-6.26l-.03.02Z"/>
    <path d="M308.85,50.04c-.17-.38-.55-.62-.96-.62h-25.81c-1.38,0-2.53.66-3.31,1.9-.71,1.12-1.05,2.77-1.05,5.05,0,1.22.12,2.37.35,3.4.23,1.01.47,1.86.73,2.51.16.4.55.67.98.67h25.81c1.39,0,2.54-.68,3.32-1.95.7-1.15,1.04-2.78,1.04-4.99,0-1.21-.11-2.35-.32-3.38-.22-1.06-.47-1.9-.78-2.58h0Z"/>
  </g>
  <g>
    <path d="M202.98,31.24c-2.63-2.54-5.77-4.49-9.34-5.8-3.54-1.31-7.42-1.97-11.51-1.97s-7.96.66-11.47,1.97c-1.04.39-2.09.85-3.12,1.39-5.67,2.25-10.89,5.67-15.53,10.17-5.84-6.83-14.18-13.52-30.69-13.52-4.1,0-7.96.66-11.47,1.97-3.53,1.31-6.66,3.27-9.29,5.8-2.63,2.54-4.73,5.71-6.23,9.43-1.49,3.7-2.25,8.03-2.25,12.86s.74,9.16,2.2,12.89c1.47,3.75,3.53,6.94,6.14,9.48,2.6,2.54,5.73,4.49,9.3,5.81,3.54,1.3,7.43,1.97,11.58,1.97,1.2.13,2.4.2,3.58.2,9.7,0,18.59-4.43,27.15-13.55,13.67,12.09,24.58,13.42,28.68,13.42h0c.78,0,1.29-.05,1.48-.07,4.13,0,8.01-.67,11.53-1.97,3.57-1.31,6.71-3.27,9.34-5.8,2.63-2.54,4.72-5.73,6.19-9.48,1.46-3.73,2.2-8.07,2.2-12.89s-.76-9.15-2.25-12.86c-1.5-3.72-3.6-6.89-6.23-9.43v-.02ZM182.17,70.05c-2.71-.12-4.75-.78-6.58-1.74-2.38-1.25-3-1.17-6.77-4.4-2.22-1.9-12.02-10.59-11.59-11,1.3-1.23,4.77,2.93,3.39.9,1.05-1.72,5.33-7.3,9.87-11.1,3.11-2.6,8.02-5.63,11.64-5.63,3.88,0,6.86,1.31,9.12,4.02,2.27,2.72,3.43,6.9,3.43,12.42s-1.15,9.79-3.43,12.51c-2.26,2.7-5.24,4.02-9.07,4.02h0ZM121.29,37.08c8.89.38,13.17,4.15,18.28,13.41.16.3.93,1.56,1.09,1.91.11.24.97,2.35,1.09,2.59-6.93,10-11.94,13.31-17.05,14.66-1.04.26-2.18.39-3.38.39-3.88,0-6.86-1.31-9.12-4.02-2.27-2.72-3.43-6.93-3.43-12.51s1.17-9.69,3.47-12.42c2.28-2.7,5.24-4.02,9.05-4.02h0Z"/>
    <path d="M86.99,60.79c-.28-3.78-.59-7.73-.94-11.75-.35-4.12-.7-8.02-1.04-11.59-.35-3.66-.7-6.96-1.04-9.79-.35-2.85-.67-5.01-.95-6.41-.41-2.06-1.73-3.64-3.9-4.69-2.01-.96-4.68-1.45-7.93-1.45-1.87,0-3.61.18-5.17.55-1.56.36-2.88.81-3.92,1.33-.24.12-.42.32-.52.57-1.47,3.91-3.18,8.76-5.1,14.41-1.7,4.99-3.41,10.19-5.1,15.47-.47-1.39-.96-2.85-1.47-4.36-.8-2.39-1.61-4.8-2.44-7.23-.82-2.4-1.66-4.8-2.5-7.13-.83-2.32-1.64-4.45-2.41-6.33-1.06-2.57-2.65-4.46-4.72-5.61-2.02-1.12-4.78-1.69-8.2-1.69s-5.75.5-7.62,1.53c-1.85,1.02-3.07,1.95-3.72,2.85-.12.16-.19.35-.2.55-.21,3-.42,6.27-.62,9.72-.2,3.38-.43,6.94-.67,10.58-.24,3.57-.49,7.08-.73,10.54-.24,3.47-.45,6.74-.62,9.72-.17,2.96-.31,5.65-.42,8.01-.1,2.33-.16,4.18-.16,5.5,0,2.67.94,4.59,2.79,5.73,1.68,1.03,4,1.56,6.89,1.56,1.44,0,2.85-.13,4.19-.38,1.35-.26,2.41-.53,3.23-.82.4-.14.67-.51.69-.94.2-4.09.38-7.94.52-11.43.14-3.58.27-7.04.36-10.29.11-3.62.23-7.03.36-10.43.08-2.15.18-4.47.29-6.95.66,2.01,1.43,4.2,2.28,6.55,1.53,4.18,3.43,9.57,5.65,16.03.59,1.69,1.8,2.88,3.59,3.55,1.6.6,3.59.9,5.92.9,1.76,0,3.37-.23,4.78-.67,1.44-.46,2.65-1.08,3.58-1.86.15-.13.27-.29.33-.48,2.27-6.94,4.2-12.69,5.76-17.11.86-2.44,1.61-4.67,2.25-6.66.13,3.39.25,7.34.37,11.79.17,6.63.5,14.07.99,22.1.16,2.81,1.24,4.75,3.22,5.76,1.77.9,3.9,1.36,6.35,1.36,1.88,0,3.48-.17,4.73-.5,1.27-.34,2.48-.85,3.6-1.52.33-.2.53-.56.51-.95-.07-1.74-.21-4.19-.42-7.3-.21-3.12-.45-6.56-.73-10.34h.03Z"/>
    <path d="M257.69,22.72c-1.38,0-2.7.1-3.92.28-1.19.18-2.1.34-2.72.46-.49.1-.85.53-.85,1.03v15.05c0,3.39.02,6.9.05,10.43.02,2.08.08,4.25.19,6.47-.21-.47-.41-.93-.62-1.39-.88-1.94-1.85-3.91-2.88-5.85l-10.61-20.4c-1.33-2.52-3.03-4.18-5.05-4.94-1.89-.71-3.99-1.06-6.21-1.06-1.92,0-3.77.31-5.48.92-1.8.65-3.15,1.58-3.99,2.79-.13.18-.19.39-.19.61v46.68c0,2.73.67,4.69,2,5.83,1.3,1.12,3.39,1.66,6.4,1.66,1.3,0,2.58-.08,3.81-.24,1.21-.16,2.11-.29,2.75-.42.49-.1.85-.53.85-1.03v-16.86c0-3.03-.03-6.26-.09-9.58-.04-1.95-.12-3.97-.24-6.05.3.69.6,1.36.9,2.02.88,1.94,1.85,3.92,2.88,5.85l10.51,20.3c1.33,2.59,3.05,4.29,5.11,5.04,1.92.7,4,1.06,6.16,1.06s3.94-.24,5.48-.73c1.58-.49,2.86-1.16,3.82-1.97.23-.2.37-.49.37-.8V30.21c0-2.73-.67-4.69-2-5.83-1.3-1.12-3.39-1.66-6.4-1.66h-.03Z"/>
    <path d="M383.44,60.79c-.28-3.78-.59-7.73-.94-11.75-.35-4.12-.7-8.02-1.04-11.59-.35-3.68-.7-6.98-1.04-9.79-.35-2.85-.67-5.01-.95-6.41-.41-2.06-1.73-3.64-3.9-4.69-2.01-.96-4.68-1.45-7.93-1.45-1.87,0-3.61.18-5.17.55-1.56.36-2.88.81-3.92,1.33-.24.12-.42.32-.52.57-1.47,3.91-3.18,8.76-5.1,14.41-1.7,4.99-3.41,10.19-5.1,15.47-.47-1.39-.97-2.85-1.47-4.36-.8-2.39-1.61-4.8-2.44-7.23-.83-2.41-1.67-4.81-2.5-7.13-.83-2.31-1.64-4.44-2.41-6.33-1.06-2.57-2.65-4.46-4.72-5.61-2.02-1.12-4.78-1.69-8.2-1.69s-5.75.5-7.62,1.53c-1.85,1.02-3.07,1.95-3.72,2.85-.12.16-.19.35-.2.55-.21,3-.42,6.27-.62,9.72-.2,3.38-.43,6.94-.67,10.58-.24,3.57-.49,7.08-.73,10.54-.24,3.47-.45,6.74-.62,9.72-.17,2.96-.31,5.65-.42,8.01-.1,2.31-.16,4.16-.16,5.5,0,2.67.94,4.59,2.79,5.73,1.68,1.03,4,1.56,6.89,1.56,1.44,0,2.85-.13,4.19-.38,1.35-.26,2.41-.53,3.23-.82.4-.14.67-.51.69-.94.2-4.09.38-7.94.52-11.43.14-3.52.26-6.98.36-10.29.11-3.62.23-7.03.36-10.43.08-2.15.18-4.47.29-6.95.66,2.01,1.43,4.2,2.28,6.55,1.53,4.18,3.43,9.57,5.65,16.03.59,1.69,1.8,2.88,3.59,3.55,1.6.6,3.59.9,5.92.9,1.76,0,3.37-.23,4.78-.67,1.44-.46,2.65-1.08,3.58-1.86.15-.13.27-.29.33-.48,2.27-6.94,4.2-12.69,5.76-17.11.86-2.44,1.61-4.67,2.25-6.66.13,3.39.25,7.34.37,11.79.17,6.63.5,14.07.99,22.1.16,2.81,1.24,4.75,3.22,5.76,1.77.9,3.9,1.36,6.35,1.36,1.88,0,3.48-.17,4.73-.5,1.27-.34,2.48-.85,3.6-1.52.33-.2.53-.56.51-.95-.07-1.76-.21-4.22-.42-7.3-.21-3.12-.45-6.56-.73-10.34h.03Z"/>
    <path d="M440.3,65.9c-1.26-4.32-2.59-8.78-3.95-13.24-1.33-4.37-2.69-8.77-4.04-13.06-1.32-4.21-2.58-7.97-3.73-11.18-.71-2.06-2.28-3.54-4.67-4.41-2.19-.79-4.74-1.2-7.56-1.2-1.95,0-3.94.25-5.92.76-2.03.52-3.5,1.06-4.5,1.66-.2.12-.35.29-.43.5-.55,1.36-1.23,3.17-2.01,5.4-.79,2.23-1.66,4.69-2.63,7.38-.96,2.67-1.97,5.53-3,8.49-1.02,2.94-2.01,5.85-2.95,8.67-.94,2.81-1.8,5.43-2.59,7.85-.79,2.44-1.41,4.5-1.82,6.1-.3,1.02-.57,1.93-.81,2.71-.27.88-.41,1.81-.41,2.76,0,2.11.84,3.76,2.5,4.9,1.55,1.07,3.72,1.59,6.63,1.59,1.28,0,2.39-.1,3.3-.3.86-.19,1.72-.41,2.53-.66.35-.11.62-.39.71-.74.42-1.61.92-3.49,1.49-5.61.5-1.86,1.05-3.76,1.62-5.66h16.2l1.94,6.54c.53,2.14,1.43,3.76,2.65,4.81,1.27,1.09,3.28,1.61,6.17,1.61,1.93,0,3.62-.27,5.04-.79,1.46-.54,2.6-1.29,3.38-2.21.23-.27.31-.63.21-.97-.98-3.48-2.11-7.41-3.36-11.7h.01ZM421.23,55.44h-10.16c.96-3.13,1.99-6.23,3.06-9.24.89-2.48,1.68-4.8,2.37-6.92.58,1.99,1.24,4.2,1.97,6.6.93,3.05,1.85,6.26,2.76,9.56Z"/>
    <path d="M485.65,24.08c-.2-.28-.52-.45-.86-.45h-39.61c-1.86,0-3.36.58-4.47,1.73-1.1,1.14-1.66,2.89-1.66,5.22,0,1.26.19,2.44.56,3.51.35,1.03.73,1.89,1.14,2.56.19.32.53.51.9.51h13.18v36.38c0,2.85.71,4.89,2.1,6.06,1.36,1.14,3.54,1.7,6.66,1.7,1.36,0,2.68-.08,3.94-.24,1.27-.16,2.24-.33,2.96-.53.46-.13.78-.54.78-1.02v-42.36h10c1.87,0,3.38-.6,4.49-1.78,1.09-1.16,1.64-2.9,1.64-5.16,0-1.25-.17-2.42-.5-3.49s-.75-1.96-1.23-2.64h-.02Z"/>
    <path d="M539.25,24.4c-1.42-1.13-3.53-1.68-6.46-1.68-1.32,0-2.63.1-3.91.28-1.24.18-2.21.33-2.89.46-.5.09-.87.53-.87,1.04v20.88h-17.38v-14.9c0-3-.75-5.08-2.23-6.19-1.41-1.06-3.54-1.57-6.52-1.57-1.26,0-2.54.1-3.82.28-1.24.18-2.21.33-2.89.46-.5.09-.87.53-.87,1.04v49.03c0,2.89.67,4.87,2.04,6.05,1.33,1.15,3.5,1.71,6.63,1.71,1.36,0,2.68-.08,3.94-.24,1.27-.16,2.24-.33,2.96-.53.46-.12.78-.54.78-1.02v-20.79h17.38v14.81c0,2.89.67,4.87,2.04,6.05,1.33,1.15,3.5,1.71,6.63,1.71,1.36,0,2.68-.08,3.94-.24,1.27-.16,2.24-.33,2.96-.53.46-.13.78-.54.78-1.02V30.67c0-2.98-.74-5.09-2.21-6.26h-.03Z"/>
    <path d="M305.13,45.86c-.17-.38-.55-.62-.96-.62h-25.81c-1.38,0-2.53.66-3.31,1.9-.71,1.12-1.05,2.77-1.05,5.05,0,1.22.12,2.37.35,3.4.23,1.01.47,1.86.73,2.51.16.4.55.67.98.67h25.81c1.39,0,2.54-.68,3.32-1.95.7-1.15,1.04-2.78,1.04-4.99,0-1.21-.11-2.35-.32-3.38-.22-1.06-.47-1.9-.78-2.58h0Z"/>
  </g>
  <path class="st14" d="M79.56,80.36c-2.27,0-4.25-.42-5.87-1.25s-2.51-2.47-2.65-4.88c-.48-8.01-.82-15.44-.99-22.07-.17-6.68-.37-12.22-.57-16.46h-.52c-.83,2.89-2.03,6.6-3.58,11.01-1.53,4.34-3.43,10-5.66,16.83-.07.21-.2.39-.37.52-.79.59-1.78,1.08-2.95,1.45-1.31.41-2.81.62-4.46.62-2.21,0-4.08-.28-5.56-.83-1.48-.55-2.48-1.53-2.96-2.91-2.22-6.45-4.13-11.85-5.66-16.04-1.56-4.26-2.8-7.98-3.69-11.06h-.42c-.21,4.38-.39,8.34-.52,11.79-.13,3.42-.26,6.93-.36,10.44-.1,3.28-.22,6.73-.36,10.28-.13,3.28-.29,6.88-.48,10.7-.02.45-.33.83-.76.96-.65.19-1.44.37-2.34.54-1.28.24-2.62.36-4,.36-2.69,0-4.82-.47-6.33-1.4-1.52-.93-2.29-2.55-2.29-4.83,0-1.31.05-3.14.16-5.45.11-2.36.25-5.05.42-8,.17-3.01.38-6.28.62-9.71.24-3.46.48-6.97.73-10.54.24-3.6.47-7.17.68-10.59.2-3.33.4-6.49.6-9.38.02-.23.11-.46.27-.63.61-.68,1.66-1.44,3.13-2.25,1.69-.93,4.08-1.4,7.11-1.4,3.24,0,5.82.52,7.68,1.56,1.86,1.03,3.29,2.75,4.26,5.09.76,1.88,1.57,3.99,2.39,6.28.84,2.34,1.67,4.73,2.49,7.11.83,2.42,1.64,4.83,2.44,7.22.77,2.31,1.52,4.53,2.23,6.59h.52c1.93-6.07,3.89-12.03,5.82-17.7,1.84-5.43,3.5-10.13,4.94-13.98.1-.26.3-.48.56-.59.9-.4,2-.76,3.28-1.05,1.48-.34,3.14-.52,4.93-.52,3.1,0,5.61.45,7.48,1.35,1.86.9,2.98,2.22,3.32,3.95.27,1.38.59,3.51.93,6.33.34,2.8.69,6.08,1.04,9.76.35,3.71.7,7.6,1.04,11.58.34,3.98.66,7.93.93,11.73.28,3.77.52,7.22.73,10.33.18,2.71.31,4.93.39,6.62.02.41-.2.79-.56.98-.87.46-1.79.82-2.74,1.07-1.17.31-2.68.47-4.46.47h-.01Z"/>
  <path class="st1" d="M79.56,79.31c-2.11,0-3.92-.38-5.39-1.13-1.28-.65-1.96-1.96-2.07-4-.48-8-.82-15.42-.99-22.03-.17-6.69-.37-12.23-.57-16.48-.03-.56-.49-1-1.05-1h-.52c-.47,0-.88.31-1.01.76-.82,2.88-2.02,6.56-3.56,10.95-1.53,4.35-3.44,10.02-5.67,16.85-.69.52-1.58.95-2.63,1.29-1.21.38-2.6.57-4.15.57-2.08,0-3.83-.26-5.19-.76-1.19-.44-1.95-1.18-2.33-2.27-2.22-6.46-4.13-11.86-5.66-16.06-1.55-4.23-2.78-7.93-3.66-10.99-.13-.45-.54-.76-1.01-.76h-.42c-.56,0-1.03.44-1.05,1-.21,4.33-.38,8.3-.52,11.8-.13,3.42-.26,6.93-.36,10.44-.1,3.3-.22,6.75-.36,10.27-.13,3.28-.29,6.88-.48,10.69-.61.18-1.36.35-2.24.52-1.21.23-2.49.35-3.8.35-2.49,0-4.44-.42-5.78-1.25-1.2-.73-1.78-2.02-1.78-3.93,0-1.3.05-3.11.16-5.4.1-2.35.24-5.03.41-7.98.17-3.01.38-6.28.62-9.7.24-3.46.48-6.98.73-10.54.24-3.59.47-7.16.68-10.6.2-3.36.4-6.51.6-9.37.4-.45,1.21-1.12,2.85-2.02,1.53-.84,3.75-1.27,6.6-1.27,3.06,0,5.47.48,7.17,1.42,1.64.91,2.92,2.45,3.79,4.57.75,1.86,1.55,3.96,2.37,6.24.84,2.34,1.68,4.73,2.49,7.1.83,2.42,1.64,4.82,2.44,7.21.78,2.33,1.53,4.56,2.24,6.6.15.43.55.71,1,.71h.52c.46,0,.87-.3,1-.73,1.93-6.06,3.88-12.01,5.81-17.68,1.84-5.43,3.5-10.12,4.93-13.95.84-.37,1.87-.71,3.09-.99,1.4-.33,2.98-.49,4.69-.49,2.94,0,5.3.42,7.02,1.25,1.57.75,2.46,1.8,2.75,3.2.27,1.35.58,3.46.92,6.25s.69,6.07,1.04,9.73c.34,3.64.69,7.53,1.04,11.57.34,4.01.66,7.95.93,11.72.27,3.77.52,7.21.73,10.32.18,2.7.31,4.92.39,6.6-.79.42-1.64.75-2.51.98-1.08.29-2.5.43-4.2.43h-.05Z"/>
  <g>
    <path class="st0" d="M255.6,80.27c-2.04,0-3.99-.34-5.8-1s-3.33-2.19-4.53-4.53l-10.51-20.3c-1.02-1.92-1.99-3.88-2.86-5.8-.88-1.93-1.75-3.98-2.58-6.07l-.63.18c.3,3.62.48,7.11.54,10.38.06,3.31.09,6.53.09,9.56v15.97c0,.52-.38.96-.89,1.04-.49.08-1.09.16-1.78.25-1.18.15-2.42.23-3.67.23-2.71,0-4.63-.47-5.71-1.41-1.1-.95-1.63-2.59-1.63-5.03V27.43c0-.25.09-.49.25-.68.73-.87,1.82-1.57,3.24-2.08,1.6-.57,3.32-.86,5.12-.86,2.1,0,4.07.34,5.85,1,1.77.66,3.28,2.16,4.49,4.44l10.6,20.39c1.02,1.92,1.98,3.87,2.86,5.8.87,1.93,1.74,3.98,2.58,6.07l.36-.09c-.3-4.03-.47-7.9-.5-11.51-.03-3.55-.05-7.06-.05-10.42v-14.17c0-.51.37-.95.87-1.04.5-.09,1.1-.18,1.8-.29,1.17-.18,2.44-.27,3.76-.27,2.71,0,4.63.47,5.71,1.41,1.1.95,1.63,2.59,1.63,5.03v47.16c0,.34-.16.66-.44.86-.79.57-1.8,1.05-3.01,1.42-1.44.45-3.18.68-5.17.68h.01Z"/>
    <path class="st3" d="M255.6,79.22c-1.92,0-3.75-.31-5.44-.93-1.55-.57-2.88-1.92-3.96-4.02l-10.52-20.31c-1.02-1.92-1.97-3.85-2.83-5.75-.87-1.91-1.73-3.94-2.56-6.03-.16-.41-.56-.66-.98-.66-.1,0-.19,0-.29.04l-.63.18c-.48.14-.8.6-.76,1.1.3,3.59.48,7.06.54,10.31.06,3.31.09,6.52.09,9.54v15.97c-.48.08-1.07.16-1.75.25-1.14.14-2.33.22-3.54.22-3.05,0-4.41-.63-5.02-1.15-.84-.72-1.26-2.15-1.26-4.23V27.43c.61-.73,1.55-1.32,2.79-1.77,1.48-.53,3.08-.8,4.77-.8,1.98,0,3.82.31,5.48.93,1.52.57,2.84,1.9,3.92,3.95l10.6,20.39c1.02,1.92,1.97,3.85,2.83,5.75.87,1.92,1.73,3.95,2.56,6.03.16.41.56.66.98.66.08,0,.17,0,.26-.03l.36-.09c.5-.12.83-.59.8-1.1-.3-4-.47-7.85-.5-11.44-.03-3.53-.05-7.03-.05-10.41v-14.17c.49-.09,1.09-.18,1.78-.29,1.12-.17,2.33-.26,3.6-.26,3.05,0,4.41.63,5.02,1.15.84.72,1.27,2.15,1.27,4.23v47.16c-.7.5-1.61.93-2.7,1.27-1.34.42-2.97.63-4.85.63h0Z"/>
    <path class="st8" d="M374.92,80.27c-2.27,0-4.25-.42-5.87-1.25s-2.51-2.47-2.65-4.88c-.48-8.01-.82-15.44-.99-22.07-.17-6.68-.37-12.22-.57-16.46h-.52c-.83,2.89-2.03,6.6-3.58,11.01-1.53,4.34-3.43,10-5.66,16.83-.07.21-.2.39-.37.52-.79.59-1.78,1.08-2.95,1.45-1.31.41-2.81.62-4.46.62-2.21,0-4.08-.28-5.56-.83s-2.48-1.53-2.96-2.91c-2.22-6.45-4.13-11.85-5.66-16.04-1.56-4.26-2.8-7.98-3.69-11.06h-.42c-.21,4.32-.38,8.29-.52,11.79-.13,3.42-.26,6.93-.36,10.44-.1,3.28-.22,6.73-.36,10.28-.13,3.28-.29,6.88-.48,10.7-.02.45-.33.83-.76.96-.65.19-1.44.37-2.34.54-1.28.24-2.62.36-4,.36-2.69,0-4.82-.47-6.33-1.4-1.52-.93-2.29-2.55-2.29-4.83,0-1.31.05-3.14.16-5.45.1-2.33.24-5.02.41-8,.17-3.01.38-6.28.62-9.71.24-3.46.48-6.97.73-10.54.24-3.6.47-7.17.68-10.59.2-3.33.4-6.49.6-9.38.02-.23.11-.46.27-.63.61-.68,1.66-1.44,3.13-2.25,1.69-.93,4.08-1.4,7.11-1.4,3.24,0,5.82.52,7.68,1.56,1.86,1.03,3.29,2.75,4.26,5.09.77,1.88,1.57,4,2.39,6.28.84,2.35,1.68,4.74,2.49,7.11.83,2.42,1.64,4.83,2.44,7.22.77,2.31,1.52,4.53,2.23,6.59h.52c1.93-6.07,3.89-12.03,5.82-17.7,1.84-5.43,3.5-10.13,4.94-13.98.1-.26.3-.48.56-.59.9-.4,2-.76,3.28-1.05,1.48-.34,3.14-.52,4.93-.52,3.1,0,5.61.45,7.48,1.35,1.86.9,2.98,2.22,3.32,3.95.28,1.38.59,3.51.93,6.33.34,2.8.69,6.08,1.04,9.76.34,3.64.69,7.54,1.04,11.58.34,3.98.66,7.93.93,11.73.28,3.77.52,7.22.73,10.33.18,2.72.31,4.95.39,6.62.02.41-.2.79-.56.98-.86.46-1.78.82-2.73,1.07-1.17.31-2.68.47-4.47.47h0Z"/>
    <path class="st7" d="M374.92,79.22c-2.11,0-3.92-.38-5.39-1.13-1.28-.65-1.96-1.96-2.07-4-.48-8-.82-15.42-.99-22.03-.17-6.69-.37-12.23-.57-16.48-.03-.56-.49-1-1.05-1h-.52c-.47,0-.88.31-1.01.76-.82,2.88-2.02,6.56-3.56,10.95-1.53,4.35-3.44,10.02-5.67,16.85-.69.52-1.58.95-2.63,1.29-1.21.38-2.6.57-4.15.57-2.08,0-3.83-.26-5.19-.76-1.19-.44-1.95-1.18-2.33-2.27-2.22-6.46-4.13-11.86-5.66-16.06-1.55-4.23-2.78-7.93-3.66-10.99-.13-.45-.54-.76-1.01-.76h-.42c-.56,0-1.03.44-1.05,1-.21,4.28-.38,8.25-.52,11.8-.13,3.42-.26,6.93-.36,10.44-.1,3.3-.22,6.75-.36,10.27-.13,3.28-.29,6.88-.48,10.69-.61.18-1.36.35-2.24.52-1.21.23-2.49.35-3.8.35-2.49,0-4.44-.42-5.78-1.25-1.2-.73-1.78-2.02-1.78-3.93,0-1.3.05-3.11.16-5.4.1-2.33.24-5.02.41-7.98.17-3.01.38-6.28.62-9.69.24-3.46.48-6.98.73-10.54.24-3.59.47-7.16.68-10.6.2-3.36.4-6.51.6-9.37.4-.45,1.21-1.12,2.85-2.02,1.53-.84,3.75-1.27,6.6-1.27,3.06,0,5.47.48,7.17,1.42,1.64.91,2.92,2.45,3.79,4.57.75,1.86,1.55,3.95,2.37,6.24.84,2.34,1.68,4.73,2.49,7.1.83,2.42,1.64,4.82,2.44,7.21.78,2.33,1.53,4.56,2.24,6.6.15.43.55.71,1,.71h.52c.46,0,.87-.3,1-.73,1.93-6.06,3.88-12.01,5.81-17.68,1.84-5.43,3.5-10.12,4.93-13.95.84-.37,1.87-.71,3.09-.99,1.4-.33,2.98-.49,4.69-.49,2.94,0,5.3.42,7.02,1.25,1.57.75,2.46,1.8,2.75,3.2.27,1.35.58,3.46.92,6.25.34,2.79.69,6.07,1.04,9.73.34,3.64.69,7.53,1.04,11.57.34,4.01.66,7.95.93,11.72.27,3.77.52,7.21.73,10.32.18,2.71.31,4.92.39,6.6-.79.42-1.64.75-2.51.98-1.08.29-2.5.43-4.2.43l-.05-.02Z"/>
    <path class="st4" d="M434.21,80.45c-2.59,0-4.43-.46-5.48-1.36-1.05-.9-1.83-2.34-2.31-4.26l-2.18-7.34h-17.76c-.66,2.16-1.29,4.32-1.86,6.44-.51,1.87-.96,3.56-1.35,5.04-.09.36-.37.65-.73.75-.6.17-1.23.33-1.86.46-.84.18-1.88.27-3.08.27-2.65,0-4.67-.47-6.03-1.41-1.37-.94-2.04-2.26-2.04-4.03,0-.84.12-1.67.36-2.45.24-.79.51-1.69.82-2.72.41-1.6,1.03-3.66,1.81-6.07.78-2.42,1.65-5.03,2.58-7.84s1.93-5.72,2.95-8.66c1.02-2.94,2.03-5.79,2.99-8.47.97-2.69,1.84-5.15,2.63-7.39.71-2.03,1.34-3.71,1.85-5,.09-.23.27-.43.49-.54.89-.47,2.19-.92,3.86-1.35,1.9-.48,3.8-.73,5.66-.73,2.7,0,5.13.38,7.21,1.13s3.43,2.02,4.03,3.76c1.15,3.2,2.4,6.96,3.72,11.15,1.35,4.3,2.71,8.69,4.03,13.05,1.36,4.48,2.69,8.93,3.94,13.23,1.19,4.07,2.26,7.8,3.19,11.11.11.39-.01.8-.31,1.07-.63.56-1.46,1.04-2.47,1.42-1.3.48-2.87.73-4.67.73h.01ZM415.45,36.5c-.85,2.72-1.9,5.84-3.13,9.29-1.23,3.46-2.41,7.04-3.49,10.65h12.96c-1.02-3.78-2.07-7.46-3.13-10.92-1.05-3.44-1.95-6.47-2.67-9.02h-.54,0Z"/>
    <path class="st6" d="M434.21,79.4c-2.3,0-3.95-.38-4.8-1.11-.88-.76-1.55-2.01-1.97-3.72l-2.19-7.39c-.13-.45-.54-.75-1.01-.75h-17.76c-.46,0-.87.3-1.01.75-.66,2.17-1.29,4.35-1.87,6.47-.51,1.87-.96,3.57-1.35,5.05-.59.17-1.19.32-1.8.45-.77.16-1.73.25-2.86.25-2.43,0-4.25-.41-5.43-1.22-1.08-.74-1.58-1.75-1.58-3.16,0-.74.11-1.46.32-2.14.24-.79.52-1.7.82-2.73.42-1.62,1.02-3.65,1.8-6.05.78-2.41,1.64-5.02,2.58-7.83.94-2.81,1.93-5.72,2.94-8.64,1.02-2.95,2.03-5.8,2.99-8.46.97-2.69,1.84-5.16,2.63-7.39.71-2.01,1.32-3.67,1.84-4.96.82-.43,2.04-.85,3.64-1.26,1.81-.46,3.63-.69,5.4-.69,2.58,0,4.89.36,6.85,1.07,1.79.65,2.9,1.67,3.4,3.11,1.15,3.2,2.39,6.94,3.71,11.12,1.35,4.29,2.7,8.68,4.03,13.04,1.35,4.46,2.68,8.91,3.94,13.22,1.18,4.04,2.25,7.77,3.19,11.1-.53.48-1.25.88-2.13,1.21-1.18.44-2.62.66-4.3.66h-.02ZM415.45,35.44c-.46,0-.87.3-1.01.74-.84,2.7-1.89,5.81-3.11,9.25-1.24,3.47-2.42,7.08-3.51,10.7-.1.32-.03.66.16.93.2.27.51.42.85.42h12.96c.33,0,.64-.15.84-.41s.27-.6.18-.92c-1.02-3.79-2.08-7.48-3.14-10.95-1.04-3.42-1.94-6.45-2.67-9-.13-.45-.54-.76-1.01-.76h-.54,0Z"/>
    <path class="st5" d="M462.75,80.18c-2.83,0-4.84-.49-5.98-1.45-1.16-.97-1.72-2.69-1.72-5.26v-37.43h-13.6c-.4,0-.77-.23-.94-.58-.25-.5-.49-1.09-.72-1.77-.33-.96-.5-2.03-.5-3.17,0-2.04.46-3.55,1.36-4.49.9-.93,2.15-1.41,3.72-1.41h39.02c.38,0,.74.21.92.55.28.51.53,1.12.75,1.81.3.97.45,2.03.45,3.17,0,1.99-.46,3.48-1.36,4.44s-2.15,1.45-3.72,1.45h-11.06v42.58c0,.5-.36.94-.85,1.03-.54.11-1.2.21-1.96.3-1.21.15-2.49.23-3.81.23Z"/>
    <path class="st2" d="M462.75,79.13c-2.53,0-4.37-.42-5.3-1.2-.89-.75-1.35-2.25-1.35-4.45v-37.43c0-.58-.47-1.05-1.05-1.05h-13.6c-.23-.46-.45-1.01-.67-1.64-.29-.85-.44-1.8-.44-2.83,0-1.76.36-3.02,1.06-3.75.71-.73,1.67-1.08,2.96-1.08h39.02c.25.45.47.99.67,1.62.27.86.4,1.82.4,2.86,0,1.71-.36,2.96-1.07,3.72-.7.75-1.67,1.12-2.95,1.12h-11.06c-.58,0-1.05.47-1.05,1.05v42.58c-.52.1-1.15.2-1.89.29-1.17.15-2.4.22-3.68.22v-.03Z"/>
    <path class="st12" d="M532.97,80.18c-2.83,0-4.82-.49-5.94-1.45-1.13-.97-1.68-2.69-1.68-5.26v-15.86h-19.49v21c0,.5-.36.94-.85,1.03-.55.11-1.2.21-1.96.3-1.21.15-2.49.23-3.81.23-2.83,0-4.82-.49-5.94-1.45-1.13-.97-1.68-2.69-1.68-5.26V25.33c0-.52.37-.96.88-1.04.55-.09,1.21-.19,1.97-.3,1.23-.18,2.47-.27,3.67-.27,2.74,0,4.67.44,5.89,1.36s1.81,2.66,1.81,5.35v15.95h19.49v-21.04c0-.52.37-.96.88-1.04.55-.09,1.21-.19,1.97-.3,1.23-.18,2.5-.27,3.76-.27,2.68,0,4.58.47,5.8,1.45,1.22.98,1.81,2.76,1.81,5.44v48.01c0,.5-.36.94-.85,1.03-.54.11-1.2.21-1.96.3-1.21.15-2.49.23-3.81.23h.04Z"/>
    <path class="st11" d="M532.97,79.13c-3.2,0-4.62-.65-5.25-1.19-.87-.75-1.31-2.25-1.31-4.46v-15.86c0-.58-.47-1.05-1.05-1.05h-19.49c-.58,0-1.05.47-1.05,1.05v21c-.52.1-1.15.2-1.89.29-1.17.15-2.41.22-3.68.22-3.2,0-4.62-.65-5.25-1.19-.87-.75-1.31-2.25-1.31-4.46V25.33c.54-.09,1.2-.19,1.95-.3,1.18-.17,2.36-.26,3.52-.26,2.47,0,4.24.39,5.26,1.15.92.69,1.39,2.21,1.39,4.5v15.95c0,.58.47,1.05,1.05,1.05h19.49c.58,0,1.05-.47,1.05-1.05v-21.04c.54-.09,1.2-.19,1.95-.3,1.18-.17,2.39-.26,3.61-.26,2.4,0,4.13.41,5.14,1.22.94.75,1.42,2.31,1.42,4.61v48.01c-.52.1-1.15.2-1.89.29-1.17.15-2.41.22-3.68.22h.02Z"/>
    <path class="st10" d="M275.98,57.66c-.46,0-.87-.3-1.01-.74-.15-.47-.29-1.01-.42-1.61-.22-.96-.32-2.03-.32-3.17,0-2.04.3-3.55.89-4.49.59-.93,1.4-1.41,2.42-1.41h25.09c.45,0,.85.29,1,.72.16.46.3,1.02.43,1.64.2.97.3,2.03.3,3.17,0,2.01-.29,3.47-.89,4.44-.59.96-1.4,1.45-2.42,1.45h-25.07Z"/>
    <path class="st9" d="M275.98,56.61c-.14-.44-.27-.95-.4-1.53-.2-.89-.3-1.88-.3-2.94,0-2.3.39-3.4.72-3.92.4-.63.87-.91,1.53-.91h25.09c.14.43.28.94.4,1.51.18.89.27,1.89.27,2.96,0,1.79-.25,3.1-.73,3.89-.4.65-.87.95-1.52.95h-25.06Z"/>
  </g>
  <path class="st13" d="M207.25,39.84c-1.39-3.44-3.32-6.37-5.74-8.7-2.42-2.33-5.32-4.13-8.61-5.34-3.31-1.22-6.94-1.84-10.78-1.84s-7.46.62-10.74,1.84c-.97.36-1.96.8-2.93,1.31-.03.02-.06.03-.1.05-5.4,2.14-10.98,6.55-15.42,10.83,1.62,2.35,3.4,8.53,6.3,12.75.17-.21,2.26-3.27,2.44-3.5,1.41-1.74,4.26-5.07,7.46-7.75,1.22-1.02,7.59-6.12,12.99-6.12,4.48,0,8.09,1.61,10.73,4.77,2.6,3.11,3.92,7.75,3.92,13.77s-1.32,10.75-3.92,13.86c-2.64,3.17-6.25,4.77-10.78,4.77h0c-3.07-.13-6.81-1.62-8.92-2.94-4.63-2.89-8.18-5.24-13.46-13.75-1.91-3.08-5.57-11.05-7.93-14.9-4.44-7.26-14.15-14.99-30.45-14.99-3.85,0-7.46.62-10.74,1.84-3.26,1.21-6.14,3.01-8.56,5.34s-4.35,5.26-5.74,8.7c-1.39,3.45-2.1,7.51-2.1,12.07s.69,8.64,2.06,12.12c1.36,3.47,3.26,6.41,5.65,8.74s5.27,4.13,8.56,5.34c3.31,1.22,6.97,1.84,10.86,1.84h.17c1.14.13,2.28.2,3.4.2,8.43,0,18.23-6.39,25.83-13.85-2.8-3.44-5.8-7.9-7.31-11.08-5.88,8.36-12.03,13.23-18.19,14.87-1.21.3-2.52.46-3.9.46-4.48,0-8.09-1.61-10.73-4.77-2.6-3.11-3.92-7.78-3.92-13.86s1.33-10.67,3.97-13.78c2.67-3.16,6.27-4.77,10.68-4.77h.04c10.96.45,16.45,8.78,20.73,16.54.21.38.38.76.55,1.14,0,.03.05.11.12.22.76,1.39,2.93,6.99,10.32,15.93,11.28,12.89,23.7,12.82,27.64,12.82h0c.81,0,1.26-.06,1.26-.06.05,0,.1-.01.15-.01,3.9,0,7.56-.62,10.87-1.84,3.29-1.21,6.19-3.01,8.61-5.34,2.42-2.33,4.33-5.27,5.69-8.73,1.36-3.49,2.06-7.57,2.06-12.12s-.71-8.61-2.1-12.07h.01Z"/>
</svg>