<?xml version="1.0" encoding="UTF-8"?>
<svg id="Layer_1" xmlns="http://www.w3.org/2000/svg" version="1.1" viewBox="0 0 400 100">
  <!-- Generator: Adobe Illustrator 29.5.1, SVG Export Plug-In . SVG Version: 2.1.0 Build 141)  -->
  <defs>
    <style>
      .st0 {
        fill: #0070ff;
      }
    </style>
  </defs>
  <path class="st0" d="M26.82,30.67c-.61,0-1.09-.15-1.43-.44-.33-.28-.59-.71-.81-1.33l-1.75-5.18h-10.41c-.16.47-.34.98-.52,1.52-.22.64-.43,1.27-.63,1.88-.21.62-.4,1.19-.6,1.72-.19.53-.34.97-.44,1.31-.03.11-.11.19-.21.24-.43.18-.93.28-1.5.28-.51,0-.97-.14-1.38-.41-.45-.31-.68-.79-.68-1.44,0-.28.05-.57.14-.87.08-.26.18-.55.29-.85.41-1.14.93-2.61,1.57-4.41.63-1.78,1.34-3.72,2.09-5.75.75-2.03,1.51-4.07,2.29-6.13.78-2.05,1.5-3.92,2.15-5.54.03-.09.1-.16.18-.2.25-.12.59-.24,1.06-.35.46-.12.95-.18,1.44-.18.58,0,1.15.09,1.69.26.62.2,1.02.55,1.2,1.05.64,1.55,1.35,3.38,2.1,5.41.75,2.03,1.51,4.13,2.27,6.24.77,2.14,1.5,4.25,2.19,6.28.68,2.02,1.31,3.9,1.86,5.58.04.13.01.27-.08.37-.25.28-.55.51-.89.68-.35.18-.75.26-1.19.26ZM21.71,20.22c-.35-1.04-.72-2.11-1.1-3.19-.44-1.24-.85-2.43-1.25-3.58-.39-1.14-.76-2.2-1.1-3.17-.21-.61-.41-1.17-.58-1.67-.22.61-.47,1.28-.73,2.01-.38,1.05-.78,2.14-1.18,3.29-.41,1.14-.82,2.3-1.23,3.47-.34.99-.67,1.94-.98,2.85h8.14Z"/>
  <path class="st0" d="M23.1,23.34h-10.95c-.19.55-.4,1.14-.61,1.78-.22.64-.43,1.27-.63,1.88-.2.61-.4,1.18-.59,1.72-.19.53-.34.97-.45,1.33-.38.16-.83.25-1.35.25-.44,0-.82-.12-1.16-.35-.34-.23-.51-.61-.51-1.12,0-.25.04-.5.12-.76.08-.26.18-.54.29-.84.41-1.14.93-2.62,1.57-4.41.64-1.8,1.33-3.71,2.08-5.74.75-2.03,1.51-4.07,2.29-6.13.78-2.06,1.49-3.9,2.15-5.54.22-.11.54-.22.98-.33.44-.11.88-.16,1.35-.16.54,0,1.07.08,1.57.25.5.16.82.44.96.82.65,1.58,1.35,3.39,2.1,5.42.75,2.03,1.51,4.11,2.27,6.23.76,2.13,1.49,4.22,2.19,6.27.69,2.06,1.31,3.92,1.86,5.58-.22.24-.48.44-.78.59-.3.15-.64.22-1.02.22-.52,0-.91-.12-1.19-.35-.27-.23-.5-.62-.69-1.16l-1.84-5.44ZM17.62,7.69c-.3.82-.64,1.75-1.02,2.8-.38,1.05-.78,2.15-1.19,3.29-.41,1.14-.82,2.3-1.23,3.47s-.79,2.29-1.14,3.35h9.2c-.41-1.23-.83-2.46-1.27-3.7-.44-1.24-.85-2.43-1.25-3.58-.4-1.14-.76-2.2-1.1-3.17-.34-.97-.62-1.79-.84-2.47h-.16Z"/>
  <path class="st0" d="M48.89,30.87c-1.36,0-2.62-.16-3.72-.49-1.1-.32-2.02-.7-2.73-1.12-.63-.39-1.06-.77-1.31-1.16-.26-.4-.39-.93-.39-1.57V3.48c0-.16.09-.3.24-.35.15-.06.38-.13.69-.2.32-.07.66-.11,1.01-.11,1.82,0,2.1,1.16,2.1,1.85v6.66c.49-.26,1.04-.49,1.64-.7.87-.3,1.89-.45,3.05-.45,1.29,0,2.52.21,3.65.64,1.14.43,2.14,1.08,2.98,1.93.84.85,1.5,1.94,1.97,3.24.46,1.29.7,2.82.7,4.54s-.24,3.3-.72,4.59c-.48,1.3-1.16,2.39-2.03,3.25-.87.85-1.93,1.5-3.15,1.91-1.21.41-2.54.61-3.96.61ZM44.77,26.33c.37.24.88.47,1.52.7.73.26,1.6.39,2.59.39.88,0,1.68-.14,2.38-.4.69-.26,1.29-.68,1.8-1.23.51-.56.91-1.27,1.19-2.13.29-.87.43-1.92.43-3.13s-.14-2.27-.43-3.15c-.28-.87-.68-1.58-1.18-2.13-.5-.54-1.11-.95-1.8-1.21-.7-.27-1.48-.4-2.3-.4-.9,0-1.72.16-2.44.48-.68.3-1.27.65-1.75,1.04v11.19Z"/>
  <path class="st0" d="M49.46,10.55c1.25,0,2.42.2,3.52.61,1.09.41,2.04,1.02,2.84,1.84.8.82,1.43,1.85,1.88,3.11.45,1.25.67,2.73.67,4.41s-.23,3.2-.69,4.45c-.46,1.25-1.11,2.29-1.94,3.11-.83.82-1.83,1.42-3,1.82-1.17.39-2.45.59-3.84.59s-2.54-.16-3.62-.47c-1.08-.31-1.96-.67-2.64-1.08-.57-.35-.97-.7-1.19-1.04-.22-.34-.33-.8-.33-1.37V3.48c.14-.05.35-.12.63-.18.29-.07.59-.1.92-.1,1.14,0,1.72.49,1.72,1.47v7.32c.6-.38,1.31-.71,2.15-1,.83-.29,1.8-.43,2.92-.43ZM48.97,13.25c-.95,0-1.82.17-2.6.51-.78.34-1.44.74-1.98,1.21v11.57c.41.3,1,.59,1.78.86s1.68.41,2.72.41c.93,0,1.76-.14,2.51-.43.75-.29,1.4-.73,1.94-1.33.54-.6.97-1.36,1.27-2.27.3-.91.45-2,.45-3.25s-.15-2.34-.45-3.27c-.3-.93-.72-1.68-1.27-2.27-.55-.59-1.19-1.02-1.94-1.31-.75-.29-1.56-.43-2.43-.43Z"/>
  <path class="st0" d="M63.93,30.55c-1.86,0-2.14-1.16-2.14-1.85V3.48c0-.16.1-.3.24-.35.15-.06.38-.13.69-.2.32-.07.64-.11.97-.11,1.86,0,2.14,1.16,2.14,1.85v25.22c0,.16-.09.29-.24.35-.15.06-.37.13-.66.2-.31.08-.64.11-.99.11Z"/>
  <path class="st0" d="M64.83,30.07c-.27.07-.57.1-.9.1-1.17,0-1.76-.49-1.76-1.47V3.48c.14-.05.35-.12.63-.18.29-.07.58-.1.88-.1,1.17,0,1.76.49,1.76,1.47v25.22c-.14.05-.34.12-.61.18Z"/>
  <path class="st0" d="M78.52,30.87c-1.46,0-2.8-.24-3.98-.72-1.19-.48-2.23-1.19-3.08-2.1-.85-.91-1.51-2.01-1.96-3.28-.45-1.26-.68-2.69-.68-4.26s.23-3,.7-4.26c.47-1.27,1.13-2.37,1.98-3.28.85-.91,1.89-1.61,3.08-2.1,1.19-.48,2.51-.72,3.94-.72s2.76.24,3.94.72c1.19.48,2.22,1.19,3.06,2.1.83.91,1.49,2.01,1.96,3.27.46,1.26.7,2.7.7,4.26s-.23,2.99-.68,4.26c-.45,1.27-1.1,2.37-1.94,3.28-.84.91-1.87,1.62-3.06,2.1-1.18.48-2.53.72-3.98.72ZM78.52,13.63c-1.75,0-3.08.58-4.08,1.78-1,1.2-1.51,2.92-1.51,5.11s.5,3.94,1.49,5.13c.98,1.19,2.32,1.76,4.1,1.76s3.11-.58,4.08-1.78c.97-1.21,1.47-2.93,1.47-5.12s-.5-3.91-1.49-5.11c-.98-1.2-2.31-1.78-4.06-1.78Z"/>
  <path class="st0" d="M87.8,20.52c0,1.53-.22,2.9-.65,4.13-.44,1.23-1.06,2.28-1.86,3.15-.8.87-1.78,1.54-2.92,2s-2.43.69-3.84.69-2.7-.23-3.84-.69-2.13-1.13-2.94-2c-.82-.87-1.44-1.92-1.88-3.15-.44-1.23-.65-2.6-.65-4.13s.22-2.9.67-4.13c.45-1.23,1.08-2.27,1.9-3.15.82-.87,1.8-1.54,2.94-2,1.14-.46,2.41-.69,3.8-.69s2.66.23,3.8.69c1.14.46,2.12,1.13,2.92,2,.8.87,1.43,1.92,1.88,3.15.45,1.23.67,2.6.67,4.13ZM78.52,13.25c-1.85,0-3.31.64-4.37,1.92s-1.59,3.07-1.59,5.35.52,4.11,1.57,5.37c1.05,1.27,2.51,1.9,4.39,1.9s3.34-.64,4.37-1.92c1.04-1.28,1.55-3.07,1.55-5.35s-.52-4.07-1.57-5.35c-1.05-1.28-2.5-1.92-4.35-1.92Z"/>
  <path class="st0" d="M98.22,38.6c-1.42,0-2.64-.15-3.64-.44-1.01-.3-1.69-.56-2.07-.8-.93-.53-1.41-1.23-1.41-2.08,0-.46.11-.85.33-1.18.21-.31.49-.55.82-.72.05-.03.11-.04.17-.04.08,0,.16.03.23.08.54.41,1.32.8,2.31,1.15.99.35,2.09.53,3.27.53,1.73,0,3.06-.36,3.95-1.08.87-.7,1.31-1.86,1.31-3.44v-1.85c-.4.23-.87.44-1.4.62-.84.28-1.85.43-3,.43-1.24,0-2.42-.18-3.51-.53-1.11-.36-2.1-.93-2.94-1.72-.84-.78-1.52-1.81-2.01-3.06-.49-1.24-.74-2.76-.74-4.51,0-1.59.24-3.02.72-4.23.48-1.22,1.16-2.25,2.03-3.08.87-.82,1.91-1.45,3.1-1.86,1.18-.41,2.5-.61,3.93-.61,1.28,0,2.48.16,3.56.49,1.08.32,2,.73,2.74,1.21.44.3.81.63,1.1,1.01.31.41.47.91.47,1.48v16.43c0,1.41-.24,2.63-.71,3.62-.47.99-1.15,1.81-2,2.43-.84.61-1.84,1.07-2.97,1.35-1.12.28-2.33.42-3.61.42ZM99.65,13.63c-1.74,0-3.14.53-4.16,1.56-1.03,1.04-1.55,2.63-1.55,4.72,0,1.18.14,2.19.43,3,.28.8.67,1.46,1.16,1.97.49.5,1.07.87,1.73,1.09.68.23,1.41.35,2.19.35,1.03,0,1.87-.16,2.51-.47.6-.29,1.11-.63,1.52-.99v-10.25c-.41-.24-.9-.46-1.48-.65-.65-.22-1.45-.33-2.35-.33Z"/>
  <path class="st0" d="M103.86,28c-.46.38-1.1.71-1.9.98-.8.27-1.76.41-2.88.41-1.2,0-2.33-.17-3.39-.51-1.06-.34-2-.88-2.8-1.63-.8-.75-1.44-1.72-1.92-2.92-.48-1.2-.72-2.66-.72-4.37,0-1.55.23-2.92.69-4.09.46-1.17,1.11-2.15,1.94-2.94.83-.79,1.82-1.38,2.96-1.78,1.14-.39,2.41-.59,3.8-.59,1.25,0,2.4.16,3.45.47,1.05.31,1.93.7,2.64,1.17.41.27.74.58,1,.92.26.34.39.76.39,1.25v16.43c0,1.36-.22,2.51-.67,3.45-.45.94-1.08,1.7-1.88,2.29-.8.59-1.75,1.01-2.84,1.29-1.09.27-2.26.41-3.52.41-1.39,0-2.57-.14-3.54-.43-.97-.29-1.63-.54-1.98-.76-.82-.46-1.23-1.05-1.23-1.76,0-.38.09-.7.27-.96.18-.26.4-.46.67-.59.57.44,1.38.84,2.41,1.21,1.04.37,2.17.55,3.39.55,1.83,0,3.22-.39,4.19-1.16.97-.78,1.45-2.02,1.45-3.74v-2.57ZM99.44,26.69c1.09,0,1.98-.17,2.68-.51s1.27-.73,1.74-1.17v-10.63c-.46-.3-1.04-.57-1.74-.8-.69-.23-1.52-.35-2.47-.35-1.85,0-3.33.56-4.43,1.68-1.1,1.12-1.66,2.78-1.66,4.99,0,1.23.15,2.27.45,3.13.3.86.72,1.56,1.25,2.11.53.54,1.16.94,1.88,1.18.72.25,1.49.37,2.31.37Z"/>
  <path class="st0" d="M128.09,30.92c-2.63,0-4.7-.53-6.17-1.58-1.5-1.08-2.26-2.65-2.26-4.68,0-1.91.64-3.38,1.9-4.37,1.22-.95,2.95-1.55,5.14-1.77l5.46-.54v-.8c0-1.25-.35-2.13-1.08-2.68-.75-.57-1.78-.86-3.08-.86-1.1,0-2.15.16-3.11.47-.98.32-1.87.68-2.64,1.08-.05.03-.12.04-.17.04-.09,0-.18-.03-.25-.09-.24-.21-.46-.45-.65-.72-.22-.31-.34-.66-.34-1.04,0-.47.12-.86.37-1.17.23-.29.56-.55,1.02-.8.77-.4,1.65-.7,2.63-.92.98-.21,2.05-.32,3.19-.32,2.44,0,4.42.56,5.87,1.67,1.48,1.13,2.23,2.93,2.23,5.33v9.69c0,.68-.14,1.22-.42,1.59-.26.35-.65.68-1.16.98-.68.4-1.59.75-2.69,1.04-1.1.29-2.38.44-3.8.44ZM127.52,21.8c-1.34.13-2.34.43-2.96.89-.58.43-.87,1.06-.87,1.92,0,.91.34,1.59,1.02,2.08.72.51,1.86.77,3.38.77,1.1,0,2.02-.11,2.73-.33.59-.18,1.04-.36,1.35-.53v-5.29l-4.65.49Z"/>
  <path class="st0" d="M128.05,10.55c2.37,0,4.25.53,5.64,1.59,1.39,1.06,2.08,2.74,2.08,5.03v9.69c0,.6-.12,1.06-.35,1.37-.23.31-.58.61-1.04.88-.65.38-1.52.72-2.6,1s-2.31.43-3.7.43c-2.56,0-4.54-.5-5.95-1.51-1.4-1.01-2.1-2.47-2.1-4.37,0-1.8.59-3.15,1.76-4.07,1.17-.91,2.82-1.48,4.95-1.7l5.8-.57v-1.14c0-1.36-.41-2.36-1.23-2.98-.82-.63-1.92-.94-3.31-.94-1.14,0-2.22.16-3.23.49-1.01.33-1.91.69-2.7,1.1-.22-.19-.42-.41-.59-.65-.18-.24-.27-.52-.27-.82,0-.38.1-.69.29-.94.19-.24.49-.48.9-.69.74-.38,1.58-.67,2.53-.88.95-.2,1.99-.31,3.11-.31ZM128.09,27.84c1.14,0,2.09-.12,2.84-.35.75-.23,1.29-.46,1.61-.67v-5.93l-5.07.53c-1.42.14-2.47.46-3.15.96-.68.5-1.02,1.25-1.02,2.23,0,1.04.39,1.83,1.19,2.39.79.56,1.99.84,3.6.84Z"/>
  <path class="st0" d="M147.96,30.87c-1.36,0-2.61-.16-3.72-.49-1.1-.32-2.02-.7-2.73-1.12-.63-.39-1.06-.77-1.31-1.16-.26-.4-.39-.93-.39-1.57V3.48c0-.16.09-.3.24-.35.15-.06.38-.13.69-.2.32-.07.66-.11,1.01-.11,1.82,0,2.1,1.16,2.1,1.85v6.66c.49-.26,1.04-.49,1.64-.7.87-.3,1.89-.45,3.05-.45,1.29,0,2.52.21,3.65.64,1.14.43,2.14,1.08,2.98,1.93.84.85,1.5,1.94,1.97,3.24.46,1.29.7,2.82.7,4.54s-.24,3.3-.72,4.59c-.48,1.3-1.16,2.39-2.03,3.25-.87.85-1.93,1.5-3.15,1.91-1.21.41-2.54.61-3.96.61ZM143.84,26.33c.37.24.88.47,1.52.7.73.26,1.6.39,2.59.39.88,0,1.68-.14,2.38-.4.69-.26,1.29-.68,1.8-1.23.51-.56.9-1.27,1.19-2.13.29-.87.43-1.92.43-3.13s-.15-2.27-.43-3.15c-.28-.87-.68-1.58-1.18-2.13-.5-.54-1.11-.95-1.8-1.21-.7-.27-1.48-.4-2.3-.4-.9,0-1.72.16-2.44.48-.68.3-1.27.65-1.75,1.04v11.19Z"/>
  <path class="st0" d="M148.53,10.55c1.25,0,2.42.2,3.52.61,1.09.41,2.04,1.02,2.84,1.84.8.82,1.43,1.85,1.88,3.11.45,1.25.67,2.73.67,4.41s-.23,3.2-.69,4.45c-.46,1.25-1.11,2.29-1.94,3.11-.83.82-1.83,1.42-3,1.82-1.17.39-2.45.59-3.84.59s-2.54-.16-3.62-.47c-1.08-.31-1.96-.67-2.64-1.08-.57-.35-.97-.7-1.19-1.04-.22-.34-.33-.8-.33-1.37V3.48c.14-.05.35-.12.63-.18.29-.07.59-.1.92-.1,1.14,0,1.72.49,1.72,1.47v7.32c.6-.38,1.31-.71,2.15-1,.83-.29,1.8-.43,2.92-.43ZM148.04,13.25c-.95,0-1.82.17-2.6.51-.78.34-1.44.74-1.98,1.21v11.57c.41.3,1,.59,1.78.86s1.68.41,2.72.41c.93,0,1.76-.14,2.51-.43.75-.29,1.4-.73,1.94-1.33.54-.6.97-1.36,1.27-2.27.3-.91.45-2,.45-3.25s-.15-2.34-.45-3.27c-.3-.93-.72-1.68-1.27-2.27-.55-.59-1.19-1.02-1.94-1.31-.75-.29-1.56-.43-2.43-.43Z"/>
  <path class="st0" d="M169.17,30.87c-1.46,0-2.8-.24-3.98-.72-1.19-.48-2.23-1.19-3.08-2.1-.85-.91-1.51-2.01-1.96-3.28-.45-1.26-.68-2.69-.68-4.26s.23-3,.7-4.26c.47-1.27,1.13-2.37,1.98-3.28.85-.91,1.89-1.61,3.08-2.1,1.19-.48,2.51-.72,3.94-.72s2.76.24,3.94.72c1.19.48,2.22,1.19,3.06,2.1.83.91,1.49,2.01,1.96,3.27.46,1.26.7,2.7.7,4.26s-.23,2.99-.68,4.26c-.45,1.27-1.1,2.37-1.94,3.28-.84.91-1.87,1.62-3.06,2.1-1.18.48-2.53.72-3.98.72ZM169.17,13.63c-1.75,0-3.08.58-4.08,1.78-1,1.2-1.51,2.92-1.51,5.11s.5,3.94,1.49,5.13c.98,1.19,2.32,1.76,4.1,1.76s3.11-.58,4.08-1.78c.97-1.21,1.47-2.93,1.47-5.12s-.5-3.91-1.49-5.11c-.98-1.2-2.31-1.78-4.06-1.78Z"/>
  <path class="st0" d="M178.45,20.52c0,1.53-.22,2.9-.65,4.13-.44,1.23-1.06,2.28-1.86,3.15-.8.87-1.78,1.54-2.92,2s-2.43.69-3.84.69-2.7-.23-3.84-.69-2.13-1.13-2.94-2c-.82-.87-1.44-1.92-1.88-3.15-.44-1.23-.65-2.6-.65-4.13s.22-2.9.67-4.13c.45-1.23,1.08-2.27,1.9-3.15.82-.87,1.8-1.54,2.94-2,1.14-.46,2.41-.69,3.8-.69s2.66.23,3.8.69c1.14.46,2.12,1.13,2.92,2,.8.87,1.43,1.92,1.88,3.15.45,1.23.67,2.6.67,4.13ZM169.17,13.25c-1.85,0-3.31.64-4.37,1.92s-1.59,3.07-1.59,5.35.52,4.11,1.57,5.37c1.05,1.27,2.51,1.9,4.39,1.9s3.34-.64,4.37-1.92c1.04-1.28,1.55-3.07,1.55-5.35s-.52-4.07-1.57-5.35c-1.05-1.28-2.5-1.92-4.35-1.92Z"/>
  <path class="st0" d="M189.52,30.87c-2.8,0-5-.63-6.52-1.89-1.54-1.27-2.33-3.26-2.33-5.93v-11.89c0-.16.09-.3.24-.35.16-.06.38-.13.69-.2.32-.07.65-.11,1.01-.11,1.35,0,2.1.67,2.1,1.89v10.5c0,1.64.42,2.82,1.25,3.49.85.69,2.06,1.04,3.6,1.04,1.05,0,1.95-.11,2.67-.33.62-.19,1.14-.38,1.53-.58v-15.34c0-.16.09-.3.24-.35.16-.06.38-.13.69-.2.32-.07.64-.11.97-.11,1.86,0,2.14,1.19,2.14,1.89v14.22c0,.63-.08,1.13-.26,1.52-.19.42-.59.81-1.24,1.18-.65.37-1.55.72-2.68,1.06-1.13.34-2.51.51-4.09.51Z"/>
  <path class="st0" d="M181.06,11.16c.14-.05.35-.12.63-.18.29-.07.59-.1.92-.1,1.14,0,1.72.5,1.72,1.51v10.5c0,1.77.46,3.03,1.39,3.78.93.75,2.21,1.12,3.84,1.12,1.09,0,2.02-.12,2.78-.35.76-.23,1.36-.47,1.8-.71v-15.57c.14-.05.35-.12.63-.18.29-.07.58-.1.88-.1,1.17,0,1.76.5,1.76,1.51v14.22c0,.57-.08,1.03-.22,1.37-.15.34-.51.67-1.08,1-.63.35-1.49.69-2.6,1.02-1.1.33-2.43.49-3.98.49-2.72,0-4.82-.6-6.27-1.8-1.46-1.2-2.19-3.08-2.19-5.64v-11.89Z"/>
  <path class="st0" d="M207.55,30.87c-1.98,0-3.61-.45-4.86-1.34-1.29-.92-1.94-2.44-1.94-4.52V5.6c0-.16.09-.3.24-.35.15-.06.38-.13.69-.2.31-.07.65-.11,1.01-.11,1.82,0,2.1,1.16,2.1,1.85v4.32h6.32c.13,0,.26.07.33.18.1.16.19.36.28.62.1.27.14.57.14.88,0,1.54-1.01,1.77-1.61,1.77h-5.46v10.25c0,.97.25,1.63.76,2,.54.4,1.34.6,2.37.6.43,0,.91-.08,1.45-.23.54-.15.99-.33,1.35-.54.06-.03.12-.05.19-.05.1,0,.2.04.27.11.19.19.36.42.51.7.17.3.25.65.25,1.04,0,.75-.42,1.36-1.26,1.81-.76.41-1.81.62-3.12.62Z"/>
  <path class="st0" d="M207.55,30.49c-1.91,0-3.45-.42-4.64-1.27-1.19-.84-1.78-2.25-1.78-4.21V5.6c.14-.05.35-.12.63-.18.29-.07.59-.1.92-.1,1.14,0,1.72.49,1.72,1.47v4.7h6.7c.08.14.16.32.25.55s.12.48.12.76c0,.93-.41,1.39-1.23,1.39h-5.84v10.63c0,1.09.31,1.86.92,2.31.61.45,1.48.67,2.6.67.46,0,.98-.08,1.55-.24.57-.16,1.05-.35,1.43-.57.16.16.31.37.45.61.14.24.2.53.2.86,0,.6-.35,1.09-1.06,1.47-.71.38-1.69.57-2.94.57Z"/>
  <path class="st0" d="M233.95,30.87c-1.36,0-2.61-.16-3.72-.49-1.1-.32-2.02-.7-2.73-1.12-.63-.39-1.06-.77-1.31-1.16-.26-.4-.39-.93-.39-1.57V3.48c0-.16.09-.3.24-.35.15-.06.38-.13.69-.2.32-.07.66-.11,1.01-.11,1.82,0,2.1,1.16,2.1,1.85v6.66c.49-.26,1.04-.49,1.64-.7.87-.3,1.89-.45,3.05-.45,1.29,0,2.52.21,3.65.64,1.14.43,2.14,1.08,2.98,1.93.84.85,1.5,1.94,1.97,3.24.46,1.29.7,2.82.7,4.54s-.24,3.3-.72,4.59c-.48,1.3-1.16,2.39-2.03,3.25-.87.85-1.93,1.5-3.15,1.91-1.21.41-2.54.61-3.96.61ZM229.83,26.33c.37.24.88.47,1.52.7.73.26,1.6.39,2.59.39.88,0,1.68-.14,2.38-.4.69-.26,1.29-.68,1.8-1.23.51-.56.9-1.27,1.19-2.13.29-.87.43-1.92.43-3.13s-.15-2.27-.43-3.15c-.28-.87-.68-1.58-1.18-2.13-.5-.54-1.11-.95-1.8-1.21-.7-.27-1.48-.4-2.3-.4-.9,0-1.72.16-2.44.48-.68.3-1.27.65-1.75,1.04v11.19Z"/>
  <path class="st0" d="M234.52,10.55c1.25,0,2.42.2,3.52.61,1.09.41,2.04,1.02,2.84,1.84.8.82,1.43,1.85,1.88,3.11.45,1.25.67,2.73.67,4.41s-.23,3.2-.69,4.45c-.46,1.25-1.11,2.29-1.94,3.11-.83.82-1.83,1.42-3,1.82-1.17.39-2.45.59-3.84.59s-2.54-.16-3.62-.47c-1.08-.31-1.96-.67-2.64-1.08-.57-.35-.97-.7-1.19-1.04-.22-.34-.33-.8-.33-1.37V3.48c.14-.05.35-.12.63-.18.29-.07.59-.1.92-.1,1.14,0,1.72.49,1.72,1.47v7.32c.6-.38,1.31-.71,2.15-1,.83-.29,1.8-.43,2.92-.43ZM234.03,13.25c-.95,0-1.82.17-2.6.51-.78.34-1.44.74-1.98,1.21v11.57c.41.3,1,.59,1.78.86s1.68.41,2.72.41c.93,0,1.76-.14,2.51-.43.75-.29,1.4-.73,1.94-1.33.54-.6.97-1.36,1.27-2.27.3-.91.45-2,.45-3.25s-.15-2.34-.45-3.27c-.3-.93-.72-1.68-1.27-2.27-.55-.59-1.19-1.02-1.94-1.31-.75-.29-1.56-.43-2.43-.43Z"/>
  <path class="st0" d="M249.68,30.55c-1.86,0-2.14-1.16-2.14-1.85V11.16c0-.16.1-.3.24-.35.16-.06.38-.13.69-.2.32-.07.65-.11,1.01-.11,1.35,0,2.1.67,2.1,1.89v17.49c0,.16-.09.29-.24.35-.15.06-.37.13-.66.2-.31.08-.64.11-.99.11ZM249.56,7.54c-.73,0-1.34-.24-1.8-.7-.47-.47-.7-1.04-.7-1.72s.24-1.25.7-1.72c.47-.47,1.07-.7,1.8-.7s1.33.24,1.78.71c.45.47.68,1.05.68,1.72s-.23,1.25-.68,1.71c-.45.47-1.05.71-1.79.71Z"/>
  <path class="st0" d="M247.44,5.11c0-.57.2-1.06.59-1.45.39-.39.91-.59,1.53-.59s1.13.2,1.51.59c.38.4.57.88.57,1.45s-.19,1.06-.57,1.45c-.38.4-.89.59-1.51.59s-1.14-.2-1.53-.59c-.4-.39-.59-.88-.59-1.45ZM251.2,29.88c-.14.05-.34.12-.61.18-.27.07-.57.1-.9.1-1.17,0-1.76-.49-1.76-1.47V11.16c.14-.05.35-.12.63-.18.29-.07.59-.1.92-.1,1.14,0,1.72.5,1.72,1.51v17.49Z"/>
  <path class="st0" d="M264.03,30.87c-1.98,0-3.61-.45-4.86-1.34-1.29-.92-1.94-2.44-1.94-4.52V5.6c0-.16.09-.3.24-.35.15-.06.38-.13.69-.2.31-.07.65-.11,1.01-.11,1.82,0,2.1,1.16,2.1,1.85v4.32h6.32c.13,0,.26.07.33.18.1.16.19.36.28.62.1.27.14.57.14.88,0,1.54-1.01,1.77-1.61,1.77h-5.46v10.25c0,.97.25,1.63.76,2,.54.4,1.34.6,2.37.6.43,0,.91-.08,1.45-.23.54-.15.99-.33,1.35-.54.06-.03.12-.05.19-.05.1,0,.2.04.27.11.19.19.36.42.51.7.17.3.25.65.25,1.04,0,.75-.42,1.36-1.26,1.81-.76.41-1.81.62-3.12.62Z"/>
  <path class="st0" d="M264.03,30.49c-1.91,0-3.45-.42-4.64-1.27-1.19-.84-1.78-2.25-1.78-4.21V5.6c.14-.05.35-.12.63-.18.29-.07.59-.1.92-.1,1.14,0,1.72.49,1.72,1.47v4.7h6.7c.08.14.16.32.25.55s.12.48.12.76c0,.93-.41,1.39-1.23,1.39h-5.84v10.63c0,1.09.31,1.86.92,2.31.61.45,1.48.67,2.6.67.46,0,.98-.08,1.55-.24.57-.16,1.05-.35,1.43-.57.16.16.31.37.45.61.14.24.2.53.2.86,0,.6-.35,1.09-1.06,1.47-.71.38-1.69.57-2.94.57Z"/>
  <path class="st0" d="M280.09,30.87c-1.45,0-2.81-.21-4.05-.63-1.24-.42-2.34-1.07-3.24-1.92-.91-.85-1.63-1.94-2.14-3.22-.51-1.28-.76-2.8-.76-4.53s.27-3.22.81-4.5c.53-1.28,1.26-2.38,2.17-3.25.91-.88,1.99-1.55,3.22-1.99,1.22-.44,2.54-.66,3.91-.66.86,0,1.68.08,2.43.23.75.16,1.41.38,1.96.67.56.3,1,.64,1.32,1.01.34.41.52.84.52,1.29,0,.41-.12.78-.37,1.09-.23.29-.52.52-.88.69-.05.02-.1.03-.16.03-.07,0-.15-.02-.21-.07-.58-.39-1.21-.74-1.9-1.03-.66-.28-1.54-.42-2.63-.42-.87,0-1.69.15-2.43.44-.73.29-1.38.73-1.91,1.3-.53.57-.96,1.3-1.27,2.16-.31.87-.47,1.88-.47,3,0,2.23.56,3.95,1.65,5.11,1.11,1.17,2.55,1.74,4.42,1.74,1.09,0,2-.15,2.72-.44.73-.3,1.4-.65,1.97-1.05.06-.04.14-.07.21-.07.06,0,.13.02.18.05.34.19.63.43.85.71.24.31.37.69.37,1.13,0,.48-.18.92-.55,1.32-.33.36-.79.68-1.37.95-.56.26-1.22.46-1.96.62-.75.15-1.56.23-2.43.23Z"/>
  <path class="st0" d="M280.09,13.29c-.93,0-1.78.16-2.57.47-.79.31-1.47.78-2.04,1.39s-1.02,1.38-1.35,2.29c-.33.91-.49,1.96-.49,3.13,0,2.34.59,4.13,1.76,5.37,1.17,1.24,2.74,1.86,4.7,1.86,1.14,0,2.1-.16,2.86-.47.76-.31,1.44-.67,2.04-1.08.3.16.54.37.74.61.19.24.29.55.29.9,0,.38-.15.74-.45,1.06-.3.33-.72.61-1.25.86-.53.24-1.16.44-1.88.59-.72.15-1.51.22-2.35.22-1.42,0-2.73-.2-3.92-.61-1.2-.41-2.23-1.02-3.11-1.84-.87-.82-1.55-1.85-2.04-3.09-.49-1.24-.74-2.7-.74-4.39s.26-3.11.78-4.35c.52-1.24,1.21-2.28,2.08-3.13.87-.84,1.9-1.48,3.09-1.9s2.45-.63,3.78-.63c.84,0,1.63.08,2.35.22.72.15,1.34.36,1.86.63.52.27.92.58,1.21.92.29.34.43.69.43,1.04,0,.33-.1.61-.29.86-.19.25-.44.44-.74.57-.6-.41-1.25-.76-1.96-1.06-.71-.3-1.64-.45-2.78-.45Z"/>
  <path class="st0" d="M297.83,30.87c-1.46,0-2.8-.24-3.98-.72-1.19-.48-2.23-1.19-3.08-2.1-.85-.91-1.51-2.01-1.96-3.28-.45-1.26-.68-2.69-.68-4.26s.23-3,.7-4.26c.47-1.27,1.13-2.37,1.98-3.28.85-.91,1.89-1.61,3.08-2.1,1.19-.48,2.51-.72,3.94-.72s2.76.24,3.94.72c1.19.48,2.22,1.19,3.06,2.1.83.91,1.49,2.01,1.96,3.27.46,1.26.7,2.7.7,4.26s-.23,2.99-.68,4.26c-.45,1.27-1.1,2.37-1.94,3.28-.84.91-1.87,1.62-3.06,2.1-1.18.48-2.53.72-3.98.72ZM297.83,13.63c-1.75,0-3.08.58-4.08,1.78-1,1.2-1.51,2.92-1.51,5.11s.5,3.94,1.49,5.13c.98,1.19,2.32,1.76,4.1,1.76s3.11-.58,4.08-1.78c.97-1.21,1.47-2.93,1.47-5.12s-.5-3.91-1.49-5.11c-.98-1.2-2.31-1.78-4.06-1.78Z"/>
  <path class="st0" d="M307.11,20.52c0,1.53-.22,2.9-.65,4.13-.44,1.23-1.06,2.28-1.86,3.15-.8.87-1.78,1.54-2.92,2s-2.43.69-3.84.69-2.7-.23-3.84-.69-2.13-1.13-2.94-2c-.82-.87-1.44-1.92-1.88-3.15-.44-1.23-.65-2.6-.65-4.13s.22-2.9.67-4.13c.45-1.23,1.08-2.27,1.9-3.15.82-.87,1.8-1.54,2.94-2,1.14-.46,2.41-.69,3.8-.69s2.66.23,3.8.69c1.14.46,2.12,1.13,2.92,2,.8.87,1.43,1.92,1.88,3.15.45,1.23.67,2.6.67,4.13ZM297.83,13.25c-1.85,0-3.31.64-4.37,1.92s-1.59,3.07-1.59,5.35.52,4.11,1.57,5.37c1.05,1.27,2.51,1.9,4.39,1.9s3.34-.64,4.37-1.92c1.04-1.28,1.55-3.07,1.55-5.35s-.52-4.07-1.57-5.35c-1.05-1.28-2.5-1.92-4.35-1.92Z"/>
  <path class="st0" d="M312.5,30.55c-1.86,0-2.14-1.16-2.14-1.85V11.16c0-.16.1-.3.24-.35.16-.06.38-.13.69-.2.32-.07.65-.11,1.01-.11,1.35,0,2.1.67,2.1,1.89v17.49c0,.16-.09.29-.24.35-.15.06-.37.13-.66.2-.31.08-.64.11-.99.11ZM312.38,7.54c-.73,0-1.34-.24-1.8-.7-.47-.47-.7-1.04-.7-1.72s.24-1.25.7-1.72c.47-.47,1.07-.7,1.8-.7s1.33.24,1.78.71c.45.47.68,1.05.68,1.72s-.23,1.25-.68,1.71c-.45.47-1.05.71-1.79.71Z"/>
  <path class="st0" d="M310.26,5.11c0-.57.2-1.06.59-1.45.39-.39.91-.59,1.53-.59s1.13.2,1.51.59c.38.4.57.88.57,1.45s-.19,1.06-.57,1.45c-.38.4-.89.59-1.51.59s-1.14-.2-1.53-.59c-.4-.39-.59-.88-.59-1.45ZM314.02,29.88c-.14.05-.34.12-.61.18-.27.07-.57.1-.9.1-1.17,0-1.76-.49-1.76-1.47V11.16c.14-.05.35-.12.63-.18.29-.07.59-.1.92-.1,1.14,0,1.72.5,1.72,1.51v17.49Z"/>
  <path class="st0" d="M333.59,30.55c-1.86,0-2.14-1.16-2.14-1.85v-11.04c0-1.4-.39-2.43-1.15-3.06-.78-.65-1.86-.98-3.21-.98-1.04,0-1.98.13-2.78.39-.73.23-1.37.5-1.9.8v15.07c0,.16-.09.3-.24.35-.15.06-.37.13-.66.2-.31.08-.64.11-.99.11-1.86,0-2.14-1.16-2.14-1.85v-13.94c0-.64.14-1.19.41-1.61.26-.42.7-.81,1.33-1.2.74-.45,1.71-.86,2.91-1.23,1.2-.36,2.57-.55,4.07-.55,2.55,0,4.61.59,6.1,1.76,1.52,1.19,2.29,3.06,2.29,5.57v12.38c0,.16-.09.29-.24.35-.15.06-.38.13-.69.2-.32.07-.64.11-.97.11Z"/>
  <path class="st0" d="M330.55,14.31c-.86-.71-2.01-1.06-3.45-1.06-1.09,0-2.06.14-2.9.41-.85.27-1.57.59-2.17.94v15.29c-.14.05-.34.12-.61.18-.27.07-.57.1-.9.1-1.17,0-1.76-.49-1.76-1.47v-13.94c0-.57.12-1.04.35-1.41.23-.37.63-.73,1.21-1.08.71-.44,1.65-.83,2.82-1.19,1.17-.35,2.49-.53,3.96-.53,2.48,0,4.43.56,5.86,1.68s2.15,2.88,2.15,5.27v12.38c-.14.05-.35.12-.63.18-.29.07-.58.1-.88.1-1.17,0-1.76-.49-1.76-1.47v-11.04c0-1.53-.43-2.64-1.29-3.35Z"/>
  <path class="st0" d="M341.07,30.87c-.82,0-1.47-.26-1.94-.78-.46-.51-.69-1.13-.69-1.85s.23-1.38.69-1.89c.47-.52,1.12-.78,1.94-.78s1.47.26,1.92.78c.44.51.67,1.14.67,1.89s-.22,1.34-.67,1.84c-.46.52-1.1.78-1.92.78Z"/>
  <path class="st0" d="M338.82,28.25c0-.65.2-1.2.59-1.63.39-.44.95-.65,1.66-.65s1.25.22,1.64.65c.38.44.57.98.57,1.63s-.19,1.16-.57,1.59c-.38.44-.93.65-1.64.65s-1.26-.22-1.66-.65c-.4-.44-.59-.97-.59-1.59Z"/>
</svg>